G04 #@! TF.GenerationSoftware,KiCad,Pcbnew,5.0.1*
G04 #@! TF.CreationDate,2019-02-25T23:01:50+01:00*
G04 #@! TF.ProjectId,MCP1642 Eval Board,4D435031363432204576616C20426F61,rev?*
G04 #@! TF.SameCoordinates,Original*
G04 #@! TF.FileFunction,Copper,L1,Top,Signal*
G04 #@! TF.FilePolarity,Positive*
%FSLAX46Y46*%
G04 Gerber Fmt 4.6, Leading zero omitted, Abs format (unit mm)*
G04 Created by KiCad (PCBNEW 5.0.1) date Mon 25 Feb 2019 11:01:50 PM CET*
%MOMM*%
%LPD*%
G01*
G04 APERTURE LIST*
G04 #@! TA.AperFunction,ComponentPad*
%ADD10C,6.400000*%
G04 #@! TD*
G04 #@! TA.AperFunction,ComponentPad*
%ADD11C,3.000000*%
G04 #@! TD*
G04 #@! TA.AperFunction,Conductor*
%ADD12C,0.100000*%
G04 #@! TD*
G04 #@! TA.AperFunction,SMDPad,CuDef*
%ADD13C,0.875000*%
G04 #@! TD*
G04 #@! TA.AperFunction,SMDPad,CuDef*
%ADD14C,0.975000*%
G04 #@! TD*
G04 #@! TA.AperFunction,SMDPad,CuDef*
%ADD15R,1.000000X3.200000*%
G04 #@! TD*
G04 #@! TA.AperFunction,SMDPad,CuDef*
%ADD16R,0.450000X1.450000*%
G04 #@! TD*
G04 #@! TA.AperFunction,ViaPad*
%ADD17C,0.800000*%
G04 #@! TD*
G04 #@! TA.AperFunction,Conductor*
%ADD18C,0.300000*%
G04 #@! TD*
G04 #@! TA.AperFunction,Conductor*
%ADD19C,0.200000*%
G04 #@! TD*
G04 APERTURE END LIST*
D10*
G04 #@! TO.P,H1,1*
G04 #@! TO.N,GND*
X153500000Y-77500000D03*
G04 #@! TD*
G04 #@! TO.P,H2,1*
G04 #@! TO.N,GND*
X153500000Y-104500000D03*
G04 #@! TD*
G04 #@! TO.P,H3,1*
G04 #@! TO.N,GND*
X129500000Y-104500000D03*
G04 #@! TD*
G04 #@! TO.P,H4,1*
G04 #@! TO.N,GND*
X129500000Y-77500000D03*
G04 #@! TD*
D11*
G04 #@! TO.P,J6,1*
G04 #@! TO.N,/PG*
X140250000Y-105000000D03*
G04 #@! TD*
G04 #@! TO.P,J5,1*
G04 #@! TO.N,GND*
X149000000Y-87500000D03*
G04 #@! TD*
G04 #@! TO.P,J4,1*
G04 #@! TO.N,/VOUT*
X149000000Y-97500000D03*
G04 #@! TD*
G04 #@! TO.P,J3,1*
G04 #@! TO.N,/EN*
X129000000Y-97000000D03*
G04 #@! TD*
G04 #@! TO.P,J2,1*
G04 #@! TO.N,GND*
X149000000Y-92500000D03*
G04 #@! TD*
G04 #@! TO.P,J1,1*
G04 #@! TO.N,/VIN*
X149000000Y-82500000D03*
G04 #@! TD*
D12*
G04 #@! TO.N,/VOUT*
G04 #@! TO.C,R2*
G36*
X142027691Y-97826053D02*
X142048926Y-97829203D01*
X142069750Y-97834419D01*
X142089962Y-97841651D01*
X142109368Y-97850830D01*
X142127781Y-97861866D01*
X142145024Y-97874654D01*
X142160930Y-97889070D01*
X142175346Y-97904976D01*
X142188134Y-97922219D01*
X142199170Y-97940632D01*
X142208349Y-97960038D01*
X142215581Y-97980250D01*
X142220797Y-98001074D01*
X142223947Y-98022309D01*
X142225000Y-98043750D01*
X142225000Y-98556250D01*
X142223947Y-98577691D01*
X142220797Y-98598926D01*
X142215581Y-98619750D01*
X142208349Y-98639962D01*
X142199170Y-98659368D01*
X142188134Y-98677781D01*
X142175346Y-98695024D01*
X142160930Y-98710930D01*
X142145024Y-98725346D01*
X142127781Y-98738134D01*
X142109368Y-98749170D01*
X142089962Y-98758349D01*
X142069750Y-98765581D01*
X142048926Y-98770797D01*
X142027691Y-98773947D01*
X142006250Y-98775000D01*
X141568750Y-98775000D01*
X141547309Y-98773947D01*
X141526074Y-98770797D01*
X141505250Y-98765581D01*
X141485038Y-98758349D01*
X141465632Y-98749170D01*
X141447219Y-98738134D01*
X141429976Y-98725346D01*
X141414070Y-98710930D01*
X141399654Y-98695024D01*
X141386866Y-98677781D01*
X141375830Y-98659368D01*
X141366651Y-98639962D01*
X141359419Y-98619750D01*
X141354203Y-98598926D01*
X141351053Y-98577691D01*
X141350000Y-98556250D01*
X141350000Y-98043750D01*
X141351053Y-98022309D01*
X141354203Y-98001074D01*
X141359419Y-97980250D01*
X141366651Y-97960038D01*
X141375830Y-97940632D01*
X141386866Y-97922219D01*
X141399654Y-97904976D01*
X141414070Y-97889070D01*
X141429976Y-97874654D01*
X141447219Y-97861866D01*
X141465632Y-97850830D01*
X141485038Y-97841651D01*
X141505250Y-97834419D01*
X141526074Y-97829203D01*
X141547309Y-97826053D01*
X141568750Y-97825000D01*
X142006250Y-97825000D01*
X142027691Y-97826053D01*
X142027691Y-97826053D01*
G37*
D13*
G04 #@! TD*
G04 #@! TO.P,R2,1*
G04 #@! TO.N,/VOUT*
X141787500Y-98300000D03*
D12*
G04 #@! TO.N,Net-(C3-Pad2)*
G04 #@! TO.C,R2*
G36*
X140452691Y-97826053D02*
X140473926Y-97829203D01*
X140494750Y-97834419D01*
X140514962Y-97841651D01*
X140534368Y-97850830D01*
X140552781Y-97861866D01*
X140570024Y-97874654D01*
X140585930Y-97889070D01*
X140600346Y-97904976D01*
X140613134Y-97922219D01*
X140624170Y-97940632D01*
X140633349Y-97960038D01*
X140640581Y-97980250D01*
X140645797Y-98001074D01*
X140648947Y-98022309D01*
X140650000Y-98043750D01*
X140650000Y-98556250D01*
X140648947Y-98577691D01*
X140645797Y-98598926D01*
X140640581Y-98619750D01*
X140633349Y-98639962D01*
X140624170Y-98659368D01*
X140613134Y-98677781D01*
X140600346Y-98695024D01*
X140585930Y-98710930D01*
X140570024Y-98725346D01*
X140552781Y-98738134D01*
X140534368Y-98749170D01*
X140514962Y-98758349D01*
X140494750Y-98765581D01*
X140473926Y-98770797D01*
X140452691Y-98773947D01*
X140431250Y-98775000D01*
X139993750Y-98775000D01*
X139972309Y-98773947D01*
X139951074Y-98770797D01*
X139930250Y-98765581D01*
X139910038Y-98758349D01*
X139890632Y-98749170D01*
X139872219Y-98738134D01*
X139854976Y-98725346D01*
X139839070Y-98710930D01*
X139824654Y-98695024D01*
X139811866Y-98677781D01*
X139800830Y-98659368D01*
X139791651Y-98639962D01*
X139784419Y-98619750D01*
X139779203Y-98598926D01*
X139776053Y-98577691D01*
X139775000Y-98556250D01*
X139775000Y-98043750D01*
X139776053Y-98022309D01*
X139779203Y-98001074D01*
X139784419Y-97980250D01*
X139791651Y-97960038D01*
X139800830Y-97940632D01*
X139811866Y-97922219D01*
X139824654Y-97904976D01*
X139839070Y-97889070D01*
X139854976Y-97874654D01*
X139872219Y-97861866D01*
X139890632Y-97850830D01*
X139910038Y-97841651D01*
X139930250Y-97834419D01*
X139951074Y-97829203D01*
X139972309Y-97826053D01*
X139993750Y-97825000D01*
X140431250Y-97825000D01*
X140452691Y-97826053D01*
X140452691Y-97826053D01*
G37*
D13*
G04 #@! TD*
G04 #@! TO.P,R2,2*
G04 #@! TO.N,Net-(C3-Pad2)*
X140212500Y-98300000D03*
D12*
G04 #@! TO.N,GND*
G04 #@! TO.C,C1*
G36*
X135730142Y-92951174D02*
X135753803Y-92954684D01*
X135777007Y-92960496D01*
X135799529Y-92968554D01*
X135821153Y-92978782D01*
X135841670Y-92991079D01*
X135860883Y-93005329D01*
X135878607Y-93021393D01*
X135894671Y-93039117D01*
X135908921Y-93058330D01*
X135921218Y-93078847D01*
X135931446Y-93100471D01*
X135939504Y-93122993D01*
X135945316Y-93146197D01*
X135948826Y-93169858D01*
X135950000Y-93193750D01*
X135950000Y-93681250D01*
X135948826Y-93705142D01*
X135945316Y-93728803D01*
X135939504Y-93752007D01*
X135931446Y-93774529D01*
X135921218Y-93796153D01*
X135908921Y-93816670D01*
X135894671Y-93835883D01*
X135878607Y-93853607D01*
X135860883Y-93869671D01*
X135841670Y-93883921D01*
X135821153Y-93896218D01*
X135799529Y-93906446D01*
X135777007Y-93914504D01*
X135753803Y-93920316D01*
X135730142Y-93923826D01*
X135706250Y-93925000D01*
X134793750Y-93925000D01*
X134769858Y-93923826D01*
X134746197Y-93920316D01*
X134722993Y-93914504D01*
X134700471Y-93906446D01*
X134678847Y-93896218D01*
X134658330Y-93883921D01*
X134639117Y-93869671D01*
X134621393Y-93853607D01*
X134605329Y-93835883D01*
X134591079Y-93816670D01*
X134578782Y-93796153D01*
X134568554Y-93774529D01*
X134560496Y-93752007D01*
X134554684Y-93728803D01*
X134551174Y-93705142D01*
X134550000Y-93681250D01*
X134550000Y-93193750D01*
X134551174Y-93169858D01*
X134554684Y-93146197D01*
X134560496Y-93122993D01*
X134568554Y-93100471D01*
X134578782Y-93078847D01*
X134591079Y-93058330D01*
X134605329Y-93039117D01*
X134621393Y-93021393D01*
X134639117Y-93005329D01*
X134658330Y-92991079D01*
X134678847Y-92978782D01*
X134700471Y-92968554D01*
X134722993Y-92960496D01*
X134746197Y-92954684D01*
X134769858Y-92951174D01*
X134793750Y-92950000D01*
X135706250Y-92950000D01*
X135730142Y-92951174D01*
X135730142Y-92951174D01*
G37*
D14*
G04 #@! TD*
G04 #@! TO.P,C1,2*
G04 #@! TO.N,GND*
X135250000Y-93437500D03*
D12*
G04 #@! TO.N,/VIN*
G04 #@! TO.C,C1*
G36*
X135730142Y-91076174D02*
X135753803Y-91079684D01*
X135777007Y-91085496D01*
X135799529Y-91093554D01*
X135821153Y-91103782D01*
X135841670Y-91116079D01*
X135860883Y-91130329D01*
X135878607Y-91146393D01*
X135894671Y-91164117D01*
X135908921Y-91183330D01*
X135921218Y-91203847D01*
X135931446Y-91225471D01*
X135939504Y-91247993D01*
X135945316Y-91271197D01*
X135948826Y-91294858D01*
X135950000Y-91318750D01*
X135950000Y-91806250D01*
X135948826Y-91830142D01*
X135945316Y-91853803D01*
X135939504Y-91877007D01*
X135931446Y-91899529D01*
X135921218Y-91921153D01*
X135908921Y-91941670D01*
X135894671Y-91960883D01*
X135878607Y-91978607D01*
X135860883Y-91994671D01*
X135841670Y-92008921D01*
X135821153Y-92021218D01*
X135799529Y-92031446D01*
X135777007Y-92039504D01*
X135753803Y-92045316D01*
X135730142Y-92048826D01*
X135706250Y-92050000D01*
X134793750Y-92050000D01*
X134769858Y-92048826D01*
X134746197Y-92045316D01*
X134722993Y-92039504D01*
X134700471Y-92031446D01*
X134678847Y-92021218D01*
X134658330Y-92008921D01*
X134639117Y-91994671D01*
X134621393Y-91978607D01*
X134605329Y-91960883D01*
X134591079Y-91941670D01*
X134578782Y-91921153D01*
X134568554Y-91899529D01*
X134560496Y-91877007D01*
X134554684Y-91853803D01*
X134551174Y-91830142D01*
X134550000Y-91806250D01*
X134550000Y-91318750D01*
X134551174Y-91294858D01*
X134554684Y-91271197D01*
X134560496Y-91247993D01*
X134568554Y-91225471D01*
X134578782Y-91203847D01*
X134591079Y-91183330D01*
X134605329Y-91164117D01*
X134621393Y-91146393D01*
X134639117Y-91130329D01*
X134658330Y-91116079D01*
X134678847Y-91103782D01*
X134700471Y-91093554D01*
X134722993Y-91085496D01*
X134746197Y-91079684D01*
X134769858Y-91076174D01*
X134793750Y-91075000D01*
X135706250Y-91075000D01*
X135730142Y-91076174D01*
X135730142Y-91076174D01*
G37*
D14*
G04 #@! TD*
G04 #@! TO.P,C1,1*
G04 #@! TO.N,/VIN*
X135250000Y-91562500D03*
D12*
G04 #@! TO.N,/VIN*
G04 #@! TO.C,C2*
G36*
X137730142Y-91076174D02*
X137753803Y-91079684D01*
X137777007Y-91085496D01*
X137799529Y-91093554D01*
X137821153Y-91103782D01*
X137841670Y-91116079D01*
X137860883Y-91130329D01*
X137878607Y-91146393D01*
X137894671Y-91164117D01*
X137908921Y-91183330D01*
X137921218Y-91203847D01*
X137931446Y-91225471D01*
X137939504Y-91247993D01*
X137945316Y-91271197D01*
X137948826Y-91294858D01*
X137950000Y-91318750D01*
X137950000Y-91806250D01*
X137948826Y-91830142D01*
X137945316Y-91853803D01*
X137939504Y-91877007D01*
X137931446Y-91899529D01*
X137921218Y-91921153D01*
X137908921Y-91941670D01*
X137894671Y-91960883D01*
X137878607Y-91978607D01*
X137860883Y-91994671D01*
X137841670Y-92008921D01*
X137821153Y-92021218D01*
X137799529Y-92031446D01*
X137777007Y-92039504D01*
X137753803Y-92045316D01*
X137730142Y-92048826D01*
X137706250Y-92050000D01*
X136793750Y-92050000D01*
X136769858Y-92048826D01*
X136746197Y-92045316D01*
X136722993Y-92039504D01*
X136700471Y-92031446D01*
X136678847Y-92021218D01*
X136658330Y-92008921D01*
X136639117Y-91994671D01*
X136621393Y-91978607D01*
X136605329Y-91960883D01*
X136591079Y-91941670D01*
X136578782Y-91921153D01*
X136568554Y-91899529D01*
X136560496Y-91877007D01*
X136554684Y-91853803D01*
X136551174Y-91830142D01*
X136550000Y-91806250D01*
X136550000Y-91318750D01*
X136551174Y-91294858D01*
X136554684Y-91271197D01*
X136560496Y-91247993D01*
X136568554Y-91225471D01*
X136578782Y-91203847D01*
X136591079Y-91183330D01*
X136605329Y-91164117D01*
X136621393Y-91146393D01*
X136639117Y-91130329D01*
X136658330Y-91116079D01*
X136678847Y-91103782D01*
X136700471Y-91093554D01*
X136722993Y-91085496D01*
X136746197Y-91079684D01*
X136769858Y-91076174D01*
X136793750Y-91075000D01*
X137706250Y-91075000D01*
X137730142Y-91076174D01*
X137730142Y-91076174D01*
G37*
D14*
G04 #@! TD*
G04 #@! TO.P,C2,1*
G04 #@! TO.N,/VIN*
X137250000Y-91562500D03*
D12*
G04 #@! TO.N,GND*
G04 #@! TO.C,C2*
G36*
X137730142Y-92951174D02*
X137753803Y-92954684D01*
X137777007Y-92960496D01*
X137799529Y-92968554D01*
X137821153Y-92978782D01*
X137841670Y-92991079D01*
X137860883Y-93005329D01*
X137878607Y-93021393D01*
X137894671Y-93039117D01*
X137908921Y-93058330D01*
X137921218Y-93078847D01*
X137931446Y-93100471D01*
X137939504Y-93122993D01*
X137945316Y-93146197D01*
X137948826Y-93169858D01*
X137950000Y-93193750D01*
X137950000Y-93681250D01*
X137948826Y-93705142D01*
X137945316Y-93728803D01*
X137939504Y-93752007D01*
X137931446Y-93774529D01*
X137921218Y-93796153D01*
X137908921Y-93816670D01*
X137894671Y-93835883D01*
X137878607Y-93853607D01*
X137860883Y-93869671D01*
X137841670Y-93883921D01*
X137821153Y-93896218D01*
X137799529Y-93906446D01*
X137777007Y-93914504D01*
X137753803Y-93920316D01*
X137730142Y-93923826D01*
X137706250Y-93925000D01*
X136793750Y-93925000D01*
X136769858Y-93923826D01*
X136746197Y-93920316D01*
X136722993Y-93914504D01*
X136700471Y-93906446D01*
X136678847Y-93896218D01*
X136658330Y-93883921D01*
X136639117Y-93869671D01*
X136621393Y-93853607D01*
X136605329Y-93835883D01*
X136591079Y-93816670D01*
X136578782Y-93796153D01*
X136568554Y-93774529D01*
X136560496Y-93752007D01*
X136554684Y-93728803D01*
X136551174Y-93705142D01*
X136550000Y-93681250D01*
X136550000Y-93193750D01*
X136551174Y-93169858D01*
X136554684Y-93146197D01*
X136560496Y-93122993D01*
X136568554Y-93100471D01*
X136578782Y-93078847D01*
X136591079Y-93058330D01*
X136605329Y-93039117D01*
X136621393Y-93021393D01*
X136639117Y-93005329D01*
X136658330Y-92991079D01*
X136678847Y-92978782D01*
X136700471Y-92968554D01*
X136722993Y-92960496D01*
X136746197Y-92954684D01*
X136769858Y-92951174D01*
X136793750Y-92950000D01*
X137706250Y-92950000D01*
X137730142Y-92951174D01*
X137730142Y-92951174D01*
G37*
D14*
G04 #@! TD*
G04 #@! TO.P,C2,2*
G04 #@! TO.N,GND*
X137250000Y-93437500D03*
D12*
G04 #@! TO.N,GND*
G04 #@! TO.C,C4*
G36*
X143730142Y-93576174D02*
X143753803Y-93579684D01*
X143777007Y-93585496D01*
X143799529Y-93593554D01*
X143821153Y-93603782D01*
X143841670Y-93616079D01*
X143860883Y-93630329D01*
X143878607Y-93646393D01*
X143894671Y-93664117D01*
X143908921Y-93683330D01*
X143921218Y-93703847D01*
X143931446Y-93725471D01*
X143939504Y-93747993D01*
X143945316Y-93771197D01*
X143948826Y-93794858D01*
X143950000Y-93818750D01*
X143950000Y-94306250D01*
X143948826Y-94330142D01*
X143945316Y-94353803D01*
X143939504Y-94377007D01*
X143931446Y-94399529D01*
X143921218Y-94421153D01*
X143908921Y-94441670D01*
X143894671Y-94460883D01*
X143878607Y-94478607D01*
X143860883Y-94494671D01*
X143841670Y-94508921D01*
X143821153Y-94521218D01*
X143799529Y-94531446D01*
X143777007Y-94539504D01*
X143753803Y-94545316D01*
X143730142Y-94548826D01*
X143706250Y-94550000D01*
X142793750Y-94550000D01*
X142769858Y-94548826D01*
X142746197Y-94545316D01*
X142722993Y-94539504D01*
X142700471Y-94531446D01*
X142678847Y-94521218D01*
X142658330Y-94508921D01*
X142639117Y-94494671D01*
X142621393Y-94478607D01*
X142605329Y-94460883D01*
X142591079Y-94441670D01*
X142578782Y-94421153D01*
X142568554Y-94399529D01*
X142560496Y-94377007D01*
X142554684Y-94353803D01*
X142551174Y-94330142D01*
X142550000Y-94306250D01*
X142550000Y-93818750D01*
X142551174Y-93794858D01*
X142554684Y-93771197D01*
X142560496Y-93747993D01*
X142568554Y-93725471D01*
X142578782Y-93703847D01*
X142591079Y-93683330D01*
X142605329Y-93664117D01*
X142621393Y-93646393D01*
X142639117Y-93630329D01*
X142658330Y-93616079D01*
X142678847Y-93603782D01*
X142700471Y-93593554D01*
X142722993Y-93585496D01*
X142746197Y-93579684D01*
X142769858Y-93576174D01*
X142793750Y-93575000D01*
X143706250Y-93575000D01*
X143730142Y-93576174D01*
X143730142Y-93576174D01*
G37*
D14*
G04 #@! TD*
G04 #@! TO.P,C4,2*
G04 #@! TO.N,GND*
X143250000Y-94062500D03*
D12*
G04 #@! TO.N,/VOUT*
G04 #@! TO.C,C4*
G36*
X143730142Y-95451174D02*
X143753803Y-95454684D01*
X143777007Y-95460496D01*
X143799529Y-95468554D01*
X143821153Y-95478782D01*
X143841670Y-95491079D01*
X143860883Y-95505329D01*
X143878607Y-95521393D01*
X143894671Y-95539117D01*
X143908921Y-95558330D01*
X143921218Y-95578847D01*
X143931446Y-95600471D01*
X143939504Y-95622993D01*
X143945316Y-95646197D01*
X143948826Y-95669858D01*
X143950000Y-95693750D01*
X143950000Y-96181250D01*
X143948826Y-96205142D01*
X143945316Y-96228803D01*
X143939504Y-96252007D01*
X143931446Y-96274529D01*
X143921218Y-96296153D01*
X143908921Y-96316670D01*
X143894671Y-96335883D01*
X143878607Y-96353607D01*
X143860883Y-96369671D01*
X143841670Y-96383921D01*
X143821153Y-96396218D01*
X143799529Y-96406446D01*
X143777007Y-96414504D01*
X143753803Y-96420316D01*
X143730142Y-96423826D01*
X143706250Y-96425000D01*
X142793750Y-96425000D01*
X142769858Y-96423826D01*
X142746197Y-96420316D01*
X142722993Y-96414504D01*
X142700471Y-96406446D01*
X142678847Y-96396218D01*
X142658330Y-96383921D01*
X142639117Y-96369671D01*
X142621393Y-96353607D01*
X142605329Y-96335883D01*
X142591079Y-96316670D01*
X142578782Y-96296153D01*
X142568554Y-96274529D01*
X142560496Y-96252007D01*
X142554684Y-96228803D01*
X142551174Y-96205142D01*
X142550000Y-96181250D01*
X142550000Y-95693750D01*
X142551174Y-95669858D01*
X142554684Y-95646197D01*
X142560496Y-95622993D01*
X142568554Y-95600471D01*
X142578782Y-95578847D01*
X142591079Y-95558330D01*
X142605329Y-95539117D01*
X142621393Y-95521393D01*
X142639117Y-95505329D01*
X142658330Y-95491079D01*
X142678847Y-95478782D01*
X142700471Y-95468554D01*
X142722993Y-95460496D01*
X142746197Y-95454684D01*
X142769858Y-95451174D01*
X142793750Y-95450000D01*
X143706250Y-95450000D01*
X143730142Y-95451174D01*
X143730142Y-95451174D01*
G37*
D14*
G04 #@! TD*
G04 #@! TO.P,C4,1*
G04 #@! TO.N,/VOUT*
X143250000Y-95937500D03*
D12*
G04 #@! TO.N,/VOUT*
G04 #@! TO.C,C5*
G36*
X145730142Y-95451174D02*
X145753803Y-95454684D01*
X145777007Y-95460496D01*
X145799529Y-95468554D01*
X145821153Y-95478782D01*
X145841670Y-95491079D01*
X145860883Y-95505329D01*
X145878607Y-95521393D01*
X145894671Y-95539117D01*
X145908921Y-95558330D01*
X145921218Y-95578847D01*
X145931446Y-95600471D01*
X145939504Y-95622993D01*
X145945316Y-95646197D01*
X145948826Y-95669858D01*
X145950000Y-95693750D01*
X145950000Y-96181250D01*
X145948826Y-96205142D01*
X145945316Y-96228803D01*
X145939504Y-96252007D01*
X145931446Y-96274529D01*
X145921218Y-96296153D01*
X145908921Y-96316670D01*
X145894671Y-96335883D01*
X145878607Y-96353607D01*
X145860883Y-96369671D01*
X145841670Y-96383921D01*
X145821153Y-96396218D01*
X145799529Y-96406446D01*
X145777007Y-96414504D01*
X145753803Y-96420316D01*
X145730142Y-96423826D01*
X145706250Y-96425000D01*
X144793750Y-96425000D01*
X144769858Y-96423826D01*
X144746197Y-96420316D01*
X144722993Y-96414504D01*
X144700471Y-96406446D01*
X144678847Y-96396218D01*
X144658330Y-96383921D01*
X144639117Y-96369671D01*
X144621393Y-96353607D01*
X144605329Y-96335883D01*
X144591079Y-96316670D01*
X144578782Y-96296153D01*
X144568554Y-96274529D01*
X144560496Y-96252007D01*
X144554684Y-96228803D01*
X144551174Y-96205142D01*
X144550000Y-96181250D01*
X144550000Y-95693750D01*
X144551174Y-95669858D01*
X144554684Y-95646197D01*
X144560496Y-95622993D01*
X144568554Y-95600471D01*
X144578782Y-95578847D01*
X144591079Y-95558330D01*
X144605329Y-95539117D01*
X144621393Y-95521393D01*
X144639117Y-95505329D01*
X144658330Y-95491079D01*
X144678847Y-95478782D01*
X144700471Y-95468554D01*
X144722993Y-95460496D01*
X144746197Y-95454684D01*
X144769858Y-95451174D01*
X144793750Y-95450000D01*
X145706250Y-95450000D01*
X145730142Y-95451174D01*
X145730142Y-95451174D01*
G37*
D14*
G04 #@! TD*
G04 #@! TO.P,C5,1*
G04 #@! TO.N,/VOUT*
X145250000Y-95937500D03*
D12*
G04 #@! TO.N,GND*
G04 #@! TO.C,C5*
G36*
X145730142Y-93576174D02*
X145753803Y-93579684D01*
X145777007Y-93585496D01*
X145799529Y-93593554D01*
X145821153Y-93603782D01*
X145841670Y-93616079D01*
X145860883Y-93630329D01*
X145878607Y-93646393D01*
X145894671Y-93664117D01*
X145908921Y-93683330D01*
X145921218Y-93703847D01*
X145931446Y-93725471D01*
X145939504Y-93747993D01*
X145945316Y-93771197D01*
X145948826Y-93794858D01*
X145950000Y-93818750D01*
X145950000Y-94306250D01*
X145948826Y-94330142D01*
X145945316Y-94353803D01*
X145939504Y-94377007D01*
X145931446Y-94399529D01*
X145921218Y-94421153D01*
X145908921Y-94441670D01*
X145894671Y-94460883D01*
X145878607Y-94478607D01*
X145860883Y-94494671D01*
X145841670Y-94508921D01*
X145821153Y-94521218D01*
X145799529Y-94531446D01*
X145777007Y-94539504D01*
X145753803Y-94545316D01*
X145730142Y-94548826D01*
X145706250Y-94550000D01*
X144793750Y-94550000D01*
X144769858Y-94548826D01*
X144746197Y-94545316D01*
X144722993Y-94539504D01*
X144700471Y-94531446D01*
X144678847Y-94521218D01*
X144658330Y-94508921D01*
X144639117Y-94494671D01*
X144621393Y-94478607D01*
X144605329Y-94460883D01*
X144591079Y-94441670D01*
X144578782Y-94421153D01*
X144568554Y-94399529D01*
X144560496Y-94377007D01*
X144554684Y-94353803D01*
X144551174Y-94330142D01*
X144550000Y-94306250D01*
X144550000Y-93818750D01*
X144551174Y-93794858D01*
X144554684Y-93771197D01*
X144560496Y-93747993D01*
X144568554Y-93725471D01*
X144578782Y-93703847D01*
X144591079Y-93683330D01*
X144605329Y-93664117D01*
X144621393Y-93646393D01*
X144639117Y-93630329D01*
X144658330Y-93616079D01*
X144678847Y-93603782D01*
X144700471Y-93593554D01*
X144722993Y-93585496D01*
X144746197Y-93579684D01*
X144769858Y-93576174D01*
X144793750Y-93575000D01*
X145706250Y-93575000D01*
X145730142Y-93576174D01*
X145730142Y-93576174D01*
G37*
D14*
G04 #@! TD*
G04 #@! TO.P,C5,2*
G04 #@! TO.N,GND*
X145250000Y-94062500D03*
D15*
G04 #@! TO.P,L1,2*
G04 #@! TO.N,Net-(L1-Pad2)*
X141200000Y-88200000D03*
G04 #@! TO.P,L1,1*
G04 #@! TO.N,/VIN*
X139000000Y-88200000D03*
G04 #@! TD*
D12*
G04 #@! TO.N,Net-(C3-Pad2)*
G04 #@! TO.C,C3*
G36*
X140452691Y-99326053D02*
X140473926Y-99329203D01*
X140494750Y-99334419D01*
X140514962Y-99341651D01*
X140534368Y-99350830D01*
X140552781Y-99361866D01*
X140570024Y-99374654D01*
X140585930Y-99389070D01*
X140600346Y-99404976D01*
X140613134Y-99422219D01*
X140624170Y-99440632D01*
X140633349Y-99460038D01*
X140640581Y-99480250D01*
X140645797Y-99501074D01*
X140648947Y-99522309D01*
X140650000Y-99543750D01*
X140650000Y-100056250D01*
X140648947Y-100077691D01*
X140645797Y-100098926D01*
X140640581Y-100119750D01*
X140633349Y-100139962D01*
X140624170Y-100159368D01*
X140613134Y-100177781D01*
X140600346Y-100195024D01*
X140585930Y-100210930D01*
X140570024Y-100225346D01*
X140552781Y-100238134D01*
X140534368Y-100249170D01*
X140514962Y-100258349D01*
X140494750Y-100265581D01*
X140473926Y-100270797D01*
X140452691Y-100273947D01*
X140431250Y-100275000D01*
X139993750Y-100275000D01*
X139972309Y-100273947D01*
X139951074Y-100270797D01*
X139930250Y-100265581D01*
X139910038Y-100258349D01*
X139890632Y-100249170D01*
X139872219Y-100238134D01*
X139854976Y-100225346D01*
X139839070Y-100210930D01*
X139824654Y-100195024D01*
X139811866Y-100177781D01*
X139800830Y-100159368D01*
X139791651Y-100139962D01*
X139784419Y-100119750D01*
X139779203Y-100098926D01*
X139776053Y-100077691D01*
X139775000Y-100056250D01*
X139775000Y-99543750D01*
X139776053Y-99522309D01*
X139779203Y-99501074D01*
X139784419Y-99480250D01*
X139791651Y-99460038D01*
X139800830Y-99440632D01*
X139811866Y-99422219D01*
X139824654Y-99404976D01*
X139839070Y-99389070D01*
X139854976Y-99374654D01*
X139872219Y-99361866D01*
X139890632Y-99350830D01*
X139910038Y-99341651D01*
X139930250Y-99334419D01*
X139951074Y-99329203D01*
X139972309Y-99326053D01*
X139993750Y-99325000D01*
X140431250Y-99325000D01*
X140452691Y-99326053D01*
X140452691Y-99326053D01*
G37*
D13*
G04 #@! TD*
G04 #@! TO.P,C3,2*
G04 #@! TO.N,Net-(C3-Pad2)*
X140212500Y-99800000D03*
D12*
G04 #@! TO.N,/VOUT*
G04 #@! TO.C,C3*
G36*
X142027691Y-99326053D02*
X142048926Y-99329203D01*
X142069750Y-99334419D01*
X142089962Y-99341651D01*
X142109368Y-99350830D01*
X142127781Y-99361866D01*
X142145024Y-99374654D01*
X142160930Y-99389070D01*
X142175346Y-99404976D01*
X142188134Y-99422219D01*
X142199170Y-99440632D01*
X142208349Y-99460038D01*
X142215581Y-99480250D01*
X142220797Y-99501074D01*
X142223947Y-99522309D01*
X142225000Y-99543750D01*
X142225000Y-100056250D01*
X142223947Y-100077691D01*
X142220797Y-100098926D01*
X142215581Y-100119750D01*
X142208349Y-100139962D01*
X142199170Y-100159368D01*
X142188134Y-100177781D01*
X142175346Y-100195024D01*
X142160930Y-100210930D01*
X142145024Y-100225346D01*
X142127781Y-100238134D01*
X142109368Y-100249170D01*
X142089962Y-100258349D01*
X142069750Y-100265581D01*
X142048926Y-100270797D01*
X142027691Y-100273947D01*
X142006250Y-100275000D01*
X141568750Y-100275000D01*
X141547309Y-100273947D01*
X141526074Y-100270797D01*
X141505250Y-100265581D01*
X141485038Y-100258349D01*
X141465632Y-100249170D01*
X141447219Y-100238134D01*
X141429976Y-100225346D01*
X141414070Y-100210930D01*
X141399654Y-100195024D01*
X141386866Y-100177781D01*
X141375830Y-100159368D01*
X141366651Y-100139962D01*
X141359419Y-100119750D01*
X141354203Y-100098926D01*
X141351053Y-100077691D01*
X141350000Y-100056250D01*
X141350000Y-99543750D01*
X141351053Y-99522309D01*
X141354203Y-99501074D01*
X141359419Y-99480250D01*
X141366651Y-99460038D01*
X141375830Y-99440632D01*
X141386866Y-99422219D01*
X141399654Y-99404976D01*
X141414070Y-99389070D01*
X141429976Y-99374654D01*
X141447219Y-99361866D01*
X141465632Y-99350830D01*
X141485038Y-99341651D01*
X141505250Y-99334419D01*
X141526074Y-99329203D01*
X141547309Y-99326053D01*
X141568750Y-99325000D01*
X142006250Y-99325000D01*
X142027691Y-99326053D01*
X142027691Y-99326053D01*
G37*
D13*
G04 #@! TD*
G04 #@! TO.P,C3,1*
G04 #@! TO.N,/VOUT*
X141787500Y-99800000D03*
D16*
G04 #@! TO.P,U1,1*
G04 #@! TO.N,/EN*
X139275000Y-95950000D03*
G04 #@! TO.P,U1,2*
G04 #@! TO.N,Net-(C3-Pad2)*
X139925000Y-95950000D03*
G04 #@! TO.P,U1,3*
G04 #@! TO.N,/PG*
X140575000Y-95950000D03*
G04 #@! TO.P,U1,4*
G04 #@! TO.N,/VOUT*
X141225000Y-95950000D03*
G04 #@! TO.P,U1,5*
G04 #@! TO.N,Net-(L1-Pad2)*
X141225000Y-91550000D03*
G04 #@! TO.P,U1,6*
G04 #@! TO.N,GND*
X140575000Y-91550000D03*
G04 #@! TO.P,U1,7*
X139925000Y-91550000D03*
G04 #@! TO.P,U1,8*
G04 #@! TO.N,/VIN*
X139275000Y-91550000D03*
G04 #@! TD*
D12*
G04 #@! TO.N,/PG*
G04 #@! TO.C,R4*
G36*
X140452691Y-100826053D02*
X140473926Y-100829203D01*
X140494750Y-100834419D01*
X140514962Y-100841651D01*
X140534368Y-100850830D01*
X140552781Y-100861866D01*
X140570024Y-100874654D01*
X140585930Y-100889070D01*
X140600346Y-100904976D01*
X140613134Y-100922219D01*
X140624170Y-100940632D01*
X140633349Y-100960038D01*
X140640581Y-100980250D01*
X140645797Y-101001074D01*
X140648947Y-101022309D01*
X140650000Y-101043750D01*
X140650000Y-101556250D01*
X140648947Y-101577691D01*
X140645797Y-101598926D01*
X140640581Y-101619750D01*
X140633349Y-101639962D01*
X140624170Y-101659368D01*
X140613134Y-101677781D01*
X140600346Y-101695024D01*
X140585930Y-101710930D01*
X140570024Y-101725346D01*
X140552781Y-101738134D01*
X140534368Y-101749170D01*
X140514962Y-101758349D01*
X140494750Y-101765581D01*
X140473926Y-101770797D01*
X140452691Y-101773947D01*
X140431250Y-101775000D01*
X139993750Y-101775000D01*
X139972309Y-101773947D01*
X139951074Y-101770797D01*
X139930250Y-101765581D01*
X139910038Y-101758349D01*
X139890632Y-101749170D01*
X139872219Y-101738134D01*
X139854976Y-101725346D01*
X139839070Y-101710930D01*
X139824654Y-101695024D01*
X139811866Y-101677781D01*
X139800830Y-101659368D01*
X139791651Y-101639962D01*
X139784419Y-101619750D01*
X139779203Y-101598926D01*
X139776053Y-101577691D01*
X139775000Y-101556250D01*
X139775000Y-101043750D01*
X139776053Y-101022309D01*
X139779203Y-101001074D01*
X139784419Y-100980250D01*
X139791651Y-100960038D01*
X139800830Y-100940632D01*
X139811866Y-100922219D01*
X139824654Y-100904976D01*
X139839070Y-100889070D01*
X139854976Y-100874654D01*
X139872219Y-100861866D01*
X139890632Y-100850830D01*
X139910038Y-100841651D01*
X139930250Y-100834419D01*
X139951074Y-100829203D01*
X139972309Y-100826053D01*
X139993750Y-100825000D01*
X140431250Y-100825000D01*
X140452691Y-100826053D01*
X140452691Y-100826053D01*
G37*
D13*
G04 #@! TD*
G04 #@! TO.P,R4,2*
G04 #@! TO.N,/PG*
X140212500Y-101300000D03*
D12*
G04 #@! TO.N,/VOUT*
G04 #@! TO.C,R4*
G36*
X142027691Y-100826053D02*
X142048926Y-100829203D01*
X142069750Y-100834419D01*
X142089962Y-100841651D01*
X142109368Y-100850830D01*
X142127781Y-100861866D01*
X142145024Y-100874654D01*
X142160930Y-100889070D01*
X142175346Y-100904976D01*
X142188134Y-100922219D01*
X142199170Y-100940632D01*
X142208349Y-100960038D01*
X142215581Y-100980250D01*
X142220797Y-101001074D01*
X142223947Y-101022309D01*
X142225000Y-101043750D01*
X142225000Y-101556250D01*
X142223947Y-101577691D01*
X142220797Y-101598926D01*
X142215581Y-101619750D01*
X142208349Y-101639962D01*
X142199170Y-101659368D01*
X142188134Y-101677781D01*
X142175346Y-101695024D01*
X142160930Y-101710930D01*
X142145024Y-101725346D01*
X142127781Y-101738134D01*
X142109368Y-101749170D01*
X142089962Y-101758349D01*
X142069750Y-101765581D01*
X142048926Y-101770797D01*
X142027691Y-101773947D01*
X142006250Y-101775000D01*
X141568750Y-101775000D01*
X141547309Y-101773947D01*
X141526074Y-101770797D01*
X141505250Y-101765581D01*
X141485038Y-101758349D01*
X141465632Y-101749170D01*
X141447219Y-101738134D01*
X141429976Y-101725346D01*
X141414070Y-101710930D01*
X141399654Y-101695024D01*
X141386866Y-101677781D01*
X141375830Y-101659368D01*
X141366651Y-101639962D01*
X141359419Y-101619750D01*
X141354203Y-101598926D01*
X141351053Y-101577691D01*
X141350000Y-101556250D01*
X141350000Y-101043750D01*
X141351053Y-101022309D01*
X141354203Y-101001074D01*
X141359419Y-100980250D01*
X141366651Y-100960038D01*
X141375830Y-100940632D01*
X141386866Y-100922219D01*
X141399654Y-100904976D01*
X141414070Y-100889070D01*
X141429976Y-100874654D01*
X141447219Y-100861866D01*
X141465632Y-100850830D01*
X141485038Y-100841651D01*
X141505250Y-100834419D01*
X141526074Y-100829203D01*
X141547309Y-100826053D01*
X141568750Y-100825000D01*
X142006250Y-100825000D01*
X142027691Y-100826053D01*
X142027691Y-100826053D01*
G37*
D13*
G04 #@! TD*
G04 #@! TO.P,R4,1*
G04 #@! TO.N,/VOUT*
X141787500Y-101300000D03*
D12*
G04 #@! TO.N,Net-(C3-Pad2)*
G04 #@! TO.C,R3*
G36*
X139027691Y-97826053D02*
X139048926Y-97829203D01*
X139069750Y-97834419D01*
X139089962Y-97841651D01*
X139109368Y-97850830D01*
X139127781Y-97861866D01*
X139145024Y-97874654D01*
X139160930Y-97889070D01*
X139175346Y-97904976D01*
X139188134Y-97922219D01*
X139199170Y-97940632D01*
X139208349Y-97960038D01*
X139215581Y-97980250D01*
X139220797Y-98001074D01*
X139223947Y-98022309D01*
X139225000Y-98043750D01*
X139225000Y-98556250D01*
X139223947Y-98577691D01*
X139220797Y-98598926D01*
X139215581Y-98619750D01*
X139208349Y-98639962D01*
X139199170Y-98659368D01*
X139188134Y-98677781D01*
X139175346Y-98695024D01*
X139160930Y-98710930D01*
X139145024Y-98725346D01*
X139127781Y-98738134D01*
X139109368Y-98749170D01*
X139089962Y-98758349D01*
X139069750Y-98765581D01*
X139048926Y-98770797D01*
X139027691Y-98773947D01*
X139006250Y-98775000D01*
X138568750Y-98775000D01*
X138547309Y-98773947D01*
X138526074Y-98770797D01*
X138505250Y-98765581D01*
X138485038Y-98758349D01*
X138465632Y-98749170D01*
X138447219Y-98738134D01*
X138429976Y-98725346D01*
X138414070Y-98710930D01*
X138399654Y-98695024D01*
X138386866Y-98677781D01*
X138375830Y-98659368D01*
X138366651Y-98639962D01*
X138359419Y-98619750D01*
X138354203Y-98598926D01*
X138351053Y-98577691D01*
X138350000Y-98556250D01*
X138350000Y-98043750D01*
X138351053Y-98022309D01*
X138354203Y-98001074D01*
X138359419Y-97980250D01*
X138366651Y-97960038D01*
X138375830Y-97940632D01*
X138386866Y-97922219D01*
X138399654Y-97904976D01*
X138414070Y-97889070D01*
X138429976Y-97874654D01*
X138447219Y-97861866D01*
X138465632Y-97850830D01*
X138485038Y-97841651D01*
X138505250Y-97834419D01*
X138526074Y-97829203D01*
X138547309Y-97826053D01*
X138568750Y-97825000D01*
X139006250Y-97825000D01*
X139027691Y-97826053D01*
X139027691Y-97826053D01*
G37*
D13*
G04 #@! TD*
G04 #@! TO.P,R3,1*
G04 #@! TO.N,Net-(C3-Pad2)*
X138787500Y-98300000D03*
D12*
G04 #@! TO.N,GND*
G04 #@! TO.C,R3*
G36*
X137452691Y-97826053D02*
X137473926Y-97829203D01*
X137494750Y-97834419D01*
X137514962Y-97841651D01*
X137534368Y-97850830D01*
X137552781Y-97861866D01*
X137570024Y-97874654D01*
X137585930Y-97889070D01*
X137600346Y-97904976D01*
X137613134Y-97922219D01*
X137624170Y-97940632D01*
X137633349Y-97960038D01*
X137640581Y-97980250D01*
X137645797Y-98001074D01*
X137648947Y-98022309D01*
X137650000Y-98043750D01*
X137650000Y-98556250D01*
X137648947Y-98577691D01*
X137645797Y-98598926D01*
X137640581Y-98619750D01*
X137633349Y-98639962D01*
X137624170Y-98659368D01*
X137613134Y-98677781D01*
X137600346Y-98695024D01*
X137585930Y-98710930D01*
X137570024Y-98725346D01*
X137552781Y-98738134D01*
X137534368Y-98749170D01*
X137514962Y-98758349D01*
X137494750Y-98765581D01*
X137473926Y-98770797D01*
X137452691Y-98773947D01*
X137431250Y-98775000D01*
X136993750Y-98775000D01*
X136972309Y-98773947D01*
X136951074Y-98770797D01*
X136930250Y-98765581D01*
X136910038Y-98758349D01*
X136890632Y-98749170D01*
X136872219Y-98738134D01*
X136854976Y-98725346D01*
X136839070Y-98710930D01*
X136824654Y-98695024D01*
X136811866Y-98677781D01*
X136800830Y-98659368D01*
X136791651Y-98639962D01*
X136784419Y-98619750D01*
X136779203Y-98598926D01*
X136776053Y-98577691D01*
X136775000Y-98556250D01*
X136775000Y-98043750D01*
X136776053Y-98022309D01*
X136779203Y-98001074D01*
X136784419Y-97980250D01*
X136791651Y-97960038D01*
X136800830Y-97940632D01*
X136811866Y-97922219D01*
X136824654Y-97904976D01*
X136839070Y-97889070D01*
X136854976Y-97874654D01*
X136872219Y-97861866D01*
X136890632Y-97850830D01*
X136910038Y-97841651D01*
X136930250Y-97834419D01*
X136951074Y-97829203D01*
X136972309Y-97826053D01*
X136993750Y-97825000D01*
X137431250Y-97825000D01*
X137452691Y-97826053D01*
X137452691Y-97826053D01*
G37*
D13*
G04 #@! TD*
G04 #@! TO.P,R3,2*
G04 #@! TO.N,GND*
X137212500Y-98300000D03*
D12*
G04 #@! TO.N,/EN*
G04 #@! TO.C,R1*
G36*
X133527691Y-96351053D02*
X133548926Y-96354203D01*
X133569750Y-96359419D01*
X133589962Y-96366651D01*
X133609368Y-96375830D01*
X133627781Y-96386866D01*
X133645024Y-96399654D01*
X133660930Y-96414070D01*
X133675346Y-96429976D01*
X133688134Y-96447219D01*
X133699170Y-96465632D01*
X133708349Y-96485038D01*
X133715581Y-96505250D01*
X133720797Y-96526074D01*
X133723947Y-96547309D01*
X133725000Y-96568750D01*
X133725000Y-97006250D01*
X133723947Y-97027691D01*
X133720797Y-97048926D01*
X133715581Y-97069750D01*
X133708349Y-97089962D01*
X133699170Y-97109368D01*
X133688134Y-97127781D01*
X133675346Y-97145024D01*
X133660930Y-97160930D01*
X133645024Y-97175346D01*
X133627781Y-97188134D01*
X133609368Y-97199170D01*
X133589962Y-97208349D01*
X133569750Y-97215581D01*
X133548926Y-97220797D01*
X133527691Y-97223947D01*
X133506250Y-97225000D01*
X132993750Y-97225000D01*
X132972309Y-97223947D01*
X132951074Y-97220797D01*
X132930250Y-97215581D01*
X132910038Y-97208349D01*
X132890632Y-97199170D01*
X132872219Y-97188134D01*
X132854976Y-97175346D01*
X132839070Y-97160930D01*
X132824654Y-97145024D01*
X132811866Y-97127781D01*
X132800830Y-97109368D01*
X132791651Y-97089962D01*
X132784419Y-97069750D01*
X132779203Y-97048926D01*
X132776053Y-97027691D01*
X132775000Y-97006250D01*
X132775000Y-96568750D01*
X132776053Y-96547309D01*
X132779203Y-96526074D01*
X132784419Y-96505250D01*
X132791651Y-96485038D01*
X132800830Y-96465632D01*
X132811866Y-96447219D01*
X132824654Y-96429976D01*
X132839070Y-96414070D01*
X132854976Y-96399654D01*
X132872219Y-96386866D01*
X132890632Y-96375830D01*
X132910038Y-96366651D01*
X132930250Y-96359419D01*
X132951074Y-96354203D01*
X132972309Y-96351053D01*
X132993750Y-96350000D01*
X133506250Y-96350000D01*
X133527691Y-96351053D01*
X133527691Y-96351053D01*
G37*
D13*
G04 #@! TD*
G04 #@! TO.P,R1,2*
G04 #@! TO.N,/EN*
X133250000Y-96787500D03*
D12*
G04 #@! TO.N,/VIN*
G04 #@! TO.C,R1*
G36*
X133527691Y-94776053D02*
X133548926Y-94779203D01*
X133569750Y-94784419D01*
X133589962Y-94791651D01*
X133609368Y-94800830D01*
X133627781Y-94811866D01*
X133645024Y-94824654D01*
X133660930Y-94839070D01*
X133675346Y-94854976D01*
X133688134Y-94872219D01*
X133699170Y-94890632D01*
X133708349Y-94910038D01*
X133715581Y-94930250D01*
X133720797Y-94951074D01*
X133723947Y-94972309D01*
X133725000Y-94993750D01*
X133725000Y-95431250D01*
X133723947Y-95452691D01*
X133720797Y-95473926D01*
X133715581Y-95494750D01*
X133708349Y-95514962D01*
X133699170Y-95534368D01*
X133688134Y-95552781D01*
X133675346Y-95570024D01*
X133660930Y-95585930D01*
X133645024Y-95600346D01*
X133627781Y-95613134D01*
X133609368Y-95624170D01*
X133589962Y-95633349D01*
X133569750Y-95640581D01*
X133548926Y-95645797D01*
X133527691Y-95648947D01*
X133506250Y-95650000D01*
X132993750Y-95650000D01*
X132972309Y-95648947D01*
X132951074Y-95645797D01*
X132930250Y-95640581D01*
X132910038Y-95633349D01*
X132890632Y-95624170D01*
X132872219Y-95613134D01*
X132854976Y-95600346D01*
X132839070Y-95585930D01*
X132824654Y-95570024D01*
X132811866Y-95552781D01*
X132800830Y-95534368D01*
X132791651Y-95514962D01*
X132784419Y-95494750D01*
X132779203Y-95473926D01*
X132776053Y-95452691D01*
X132775000Y-95431250D01*
X132775000Y-94993750D01*
X132776053Y-94972309D01*
X132779203Y-94951074D01*
X132784419Y-94930250D01*
X132791651Y-94910038D01*
X132800830Y-94890632D01*
X132811866Y-94872219D01*
X132824654Y-94854976D01*
X132839070Y-94839070D01*
X132854976Y-94824654D01*
X132872219Y-94811866D01*
X132890632Y-94800830D01*
X132910038Y-94791651D01*
X132930250Y-94784419D01*
X132951074Y-94779203D01*
X132972309Y-94776053D01*
X132993750Y-94775000D01*
X133506250Y-94775000D01*
X133527691Y-94776053D01*
X133527691Y-94776053D01*
G37*
D13*
G04 #@! TD*
G04 #@! TO.P,R1,1*
G04 #@! TO.N,/VIN*
X133250000Y-95212500D03*
D17*
G04 #@! TO.N,GND*
X135250000Y-94500000D03*
X137250000Y-94500000D03*
X136250000Y-94500000D03*
X136300000Y-98300000D03*
X138750000Y-93750000D03*
X139750000Y-93750000D03*
X140750000Y-93750000D03*
X141750000Y-93750000D03*
G04 #@! TD*
D18*
G04 #@! TO.N,GND*
X137512500Y-98300000D02*
X136300000Y-98300000D01*
G04 #@! TO.N,Net-(C3-Pad2)*
X139925000Y-95950000D02*
X139925000Y-97175000D01*
X140212500Y-97462500D02*
X140212500Y-98250000D01*
X139925000Y-97175000D02*
X140212500Y-97462500D01*
X140212500Y-98250000D02*
X138787500Y-98250000D01*
X140212500Y-99750000D02*
X140212500Y-98250000D01*
G04 #@! TO.N,/EN*
X129212500Y-96787500D02*
X129000000Y-97000000D01*
X133250000Y-96787500D02*
X129212500Y-96787500D01*
X137962500Y-96787500D02*
X133250000Y-96787500D01*
X139275000Y-95950000D02*
X138800000Y-95950000D01*
X138800000Y-95950000D02*
X137962500Y-96787500D01*
G04 #@! TO.N,/VOUT*
X141787500Y-98250000D02*
X141787500Y-99750000D01*
D19*
G04 #@! TO.N,/PG*
X140250000Y-101337500D02*
X140212500Y-101300000D01*
D18*
X140212500Y-104962500D02*
X140250000Y-105000000D01*
X140212500Y-101300000D02*
X140212500Y-104962500D01*
D19*
X140575000Y-97075000D02*
X140575000Y-95950000D01*
X141049990Y-97549990D02*
X140575000Y-97075000D01*
X141049990Y-100700010D02*
X141049990Y-97549990D01*
X140212500Y-101300000D02*
X140450000Y-101300000D01*
X140450000Y-101300000D02*
X141049990Y-100700010D01*
G04 #@! TD*
G04 #@! TO.N,/VOUT*
G36*
X150900000Y-99758578D02*
X148958578Y-101700000D01*
X141500000Y-101700000D01*
X141500000Y-97200000D01*
X141492388Y-97161732D01*
X141470711Y-97129289D01*
X141100000Y-96758578D01*
X141100000Y-96704545D01*
X141105877Y-96675000D01*
X141105877Y-95300000D01*
X150900000Y-95300000D01*
X150900000Y-99758578D01*
X150900000Y-99758578D01*
G37*
X150900000Y-99758578D02*
X148958578Y-101700000D01*
X141500000Y-101700000D01*
X141500000Y-97200000D01*
X141492388Y-97161732D01*
X141470711Y-97129289D01*
X141100000Y-96758578D01*
X141100000Y-96704545D01*
X141105877Y-96675000D01*
X141105877Y-95300000D01*
X150900000Y-95300000D01*
X150900000Y-99758578D01*
G04 #@! TO.N,GND*
G36*
X150900000Y-94400000D02*
X138000000Y-94400000D01*
X137961732Y-94407612D01*
X137929289Y-94429289D01*
X137907612Y-94461732D01*
X137900000Y-94500000D01*
X137900000Y-95150000D01*
X134600000Y-95150000D01*
X134600000Y-93100000D01*
X139750000Y-93100000D01*
X139788268Y-93092388D01*
X139820711Y-93070711D01*
X139842388Y-93038268D01*
X139850000Y-93000000D01*
X139850000Y-90600000D01*
X140650000Y-90600000D01*
X140650000Y-93000000D01*
X140657612Y-93038268D01*
X140679289Y-93070711D01*
X140711732Y-93092388D01*
X140750000Y-93100000D01*
X142500000Y-93100000D01*
X142538268Y-93092388D01*
X142570711Y-93070711D01*
X142592388Y-93038268D01*
X142600000Y-93000000D01*
X142600000Y-85600000D01*
X150900000Y-85600000D01*
X150900000Y-94400000D01*
X150900000Y-94400000D01*
G37*
X150900000Y-94400000D02*
X138000000Y-94400000D01*
X137961732Y-94407612D01*
X137929289Y-94429289D01*
X137907612Y-94461732D01*
X137900000Y-94500000D01*
X137900000Y-95150000D01*
X134600000Y-95150000D01*
X134600000Y-93100000D01*
X139750000Y-93100000D01*
X139788268Y-93092388D01*
X139820711Y-93070711D01*
X139842388Y-93038268D01*
X139850000Y-93000000D01*
X139850000Y-90600000D01*
X140650000Y-90600000D01*
X140650000Y-93000000D01*
X140657612Y-93038268D01*
X140679289Y-93070711D01*
X140711732Y-93092388D01*
X140750000Y-93100000D01*
X142500000Y-93100000D01*
X142538268Y-93092388D01*
X142570711Y-93070711D01*
X142592388Y-93038268D01*
X142600000Y-93000000D01*
X142600000Y-85600000D01*
X150900000Y-85600000D01*
X150900000Y-94400000D01*
G04 #@! TO.N,/VIN*
G36*
X150900000Y-81541422D02*
X150900000Y-84400000D01*
X139500000Y-84400000D01*
X139461732Y-84407612D01*
X139429289Y-84429289D01*
X139407612Y-84461732D01*
X139400000Y-84500000D01*
X139400000Y-90795455D01*
X139394123Y-90825000D01*
X139394123Y-92200000D01*
X133800000Y-92200000D01*
X133761732Y-92207612D01*
X133729289Y-92229289D01*
X133707612Y-92261732D01*
X133700000Y-92300000D01*
X133700000Y-95650000D01*
X132600000Y-95650000D01*
X132600000Y-84541422D01*
X136541422Y-80600000D01*
X149958578Y-80600000D01*
X150900000Y-81541422D01*
X150900000Y-81541422D01*
G37*
X150900000Y-81541422D02*
X150900000Y-84400000D01*
X139500000Y-84400000D01*
X139461732Y-84407612D01*
X139429289Y-84429289D01*
X139407612Y-84461732D01*
X139400000Y-84500000D01*
X139400000Y-90795455D01*
X139394123Y-90825000D01*
X139394123Y-92200000D01*
X133800000Y-92200000D01*
X133761732Y-92207612D01*
X133729289Y-92229289D01*
X133707612Y-92261732D01*
X133700000Y-92300000D01*
X133700000Y-95650000D01*
X132600000Y-95650000D01*
X132600000Y-84541422D01*
X136541422Y-80600000D01*
X149958578Y-80600000D01*
X150900000Y-81541422D01*
G04 #@! TO.N,Net-(L1-Pad2)*
G36*
X141700000Y-90058578D02*
X141429289Y-90329289D01*
X141407612Y-90361732D01*
X141400000Y-90400000D01*
X141400000Y-92200000D01*
X141105877Y-92200000D01*
X141105877Y-90825000D01*
X141100000Y-90795455D01*
X141100000Y-90400000D01*
X141092388Y-90361732D01*
X141070711Y-90329289D01*
X140800000Y-90058578D01*
X140800000Y-86600000D01*
X141700000Y-86600000D01*
X141700000Y-90058578D01*
X141700000Y-90058578D01*
G37*
X141700000Y-90058578D02*
X141429289Y-90329289D01*
X141407612Y-90361732D01*
X141400000Y-90400000D01*
X141400000Y-92200000D01*
X141105877Y-92200000D01*
X141105877Y-90825000D01*
X141100000Y-90795455D01*
X141100000Y-90400000D01*
X141092388Y-90361732D01*
X141070711Y-90329289D01*
X140800000Y-90058578D01*
X140800000Y-86600000D01*
X141700000Y-86600000D01*
X141700000Y-90058578D01*
G04 #@! TO.N,Net-(C3-Pad2)*
G36*
X140044123Y-96675000D02*
X140067407Y-96792054D01*
X140100000Y-96840834D01*
X140100000Y-97200000D01*
X140107612Y-97238268D01*
X140129289Y-97270711D01*
X140500000Y-97641422D01*
X140500000Y-100400000D01*
X139800000Y-100400000D01*
X139800000Y-98900000D01*
X139792388Y-98861732D01*
X139770711Y-98829289D01*
X139738268Y-98807612D01*
X139700000Y-98800000D01*
X138300000Y-98800000D01*
X138300000Y-97700000D01*
X139300000Y-97700000D01*
X139338268Y-97692388D01*
X139370711Y-97670711D01*
X139770711Y-97270711D01*
X139792388Y-97238268D01*
X139800000Y-97200000D01*
X139800000Y-96704545D01*
X139805877Y-96675000D01*
X139805877Y-95300000D01*
X140044123Y-95300000D01*
X140044123Y-96675000D01*
X140044123Y-96675000D01*
G37*
X140044123Y-96675000D02*
X140067407Y-96792054D01*
X140100000Y-96840834D01*
X140100000Y-97200000D01*
X140107612Y-97238268D01*
X140129289Y-97270711D01*
X140500000Y-97641422D01*
X140500000Y-100400000D01*
X139800000Y-100400000D01*
X139800000Y-98900000D01*
X139792388Y-98861732D01*
X139770711Y-98829289D01*
X139738268Y-98807612D01*
X139700000Y-98800000D01*
X138300000Y-98800000D01*
X138300000Y-97700000D01*
X139300000Y-97700000D01*
X139338268Y-97692388D01*
X139370711Y-97670711D01*
X139770711Y-97270711D01*
X139792388Y-97238268D01*
X139800000Y-97200000D01*
X139800000Y-96704545D01*
X139805877Y-96675000D01*
X139805877Y-95300000D01*
X140044123Y-95300000D01*
X140044123Y-96675000D01*
G04 #@! TD*
M02*
