G04 #@! TF.GenerationSoftware,KiCad,Pcbnew,5.0.1*
G04 #@! TF.CreationDate,2019-02-25T23:01:50+01:00*
G04 #@! TF.ProjectId,MCP1642 Eval Board,4D435031363432204576616C20426F61,rev?*
G04 #@! TF.SameCoordinates,Original*
G04 #@! TF.FileFunction,Soldermask,Bot*
G04 #@! TF.FilePolarity,Negative*
%FSLAX46Y46*%
G04 Gerber Fmt 4.6, Leading zero omitted, Abs format (unit mm)*
G04 Created by KiCad (PCBNEW 5.0.1) date Mon 25 Feb 2019 11:01:50 PM CET*
%MOMM*%
%LPD*%
G01*
G04 APERTURE LIST*
%ADD10C,0.200000*%
%ADD11C,0.010000*%
%ADD12C,0.100000*%
G04 APERTURE END LIST*
D10*
X143957142Y-88042857D02*
X143957142Y-86842857D01*
X143557142Y-87700000D01*
X143157142Y-86842857D01*
X143157142Y-88042857D01*
X142071428Y-88042857D02*
X142071428Y-87414285D01*
X142128571Y-87300000D01*
X142242857Y-87242857D01*
X142471428Y-87242857D01*
X142585714Y-87300000D01*
X142071428Y-87985714D02*
X142185714Y-88042857D01*
X142471428Y-88042857D01*
X142585714Y-87985714D01*
X142642857Y-87871428D01*
X142642857Y-87757142D01*
X142585714Y-87642857D01*
X142471428Y-87585714D01*
X142185714Y-87585714D01*
X142071428Y-87528571D01*
X140985714Y-88042857D02*
X140985714Y-86842857D01*
X140985714Y-87985714D02*
X141100000Y-88042857D01*
X141328571Y-88042857D01*
X141442857Y-87985714D01*
X141500000Y-87928571D01*
X141557142Y-87814285D01*
X141557142Y-87471428D01*
X141500000Y-87357142D01*
X141442857Y-87300000D01*
X141328571Y-87242857D01*
X141100000Y-87242857D01*
X140985714Y-87300000D01*
X139957142Y-87985714D02*
X140071428Y-88042857D01*
X140300000Y-88042857D01*
X140414285Y-87985714D01*
X140471428Y-87871428D01*
X140471428Y-87414285D01*
X140414285Y-87300000D01*
X140300000Y-87242857D01*
X140071428Y-87242857D01*
X139957142Y-87300000D01*
X139900000Y-87414285D01*
X139900000Y-87528571D01*
X140471428Y-87642857D01*
X138471428Y-88042857D02*
X138471428Y-86842857D01*
X138471428Y-87300000D02*
X138357142Y-87242857D01*
X138128571Y-87242857D01*
X138014285Y-87300000D01*
X137957142Y-87357142D01*
X137900000Y-87471428D01*
X137900000Y-87814285D01*
X137957142Y-87928571D01*
X138014285Y-87985714D01*
X138128571Y-88042857D01*
X138357142Y-88042857D01*
X138471428Y-87985714D01*
X137500000Y-87242857D02*
X137214285Y-88042857D01*
X136928571Y-87242857D02*
X137214285Y-88042857D01*
X137328571Y-88328571D01*
X137385714Y-88385714D01*
X137500000Y-88442857D01*
X144671428Y-90042857D02*
X145242857Y-90042857D01*
X145242857Y-88842857D01*
X143814285Y-89985714D02*
X143928571Y-90042857D01*
X144157142Y-90042857D01*
X144271428Y-89985714D01*
X144328571Y-89871428D01*
X144328571Y-89414285D01*
X144271428Y-89300000D01*
X144157142Y-89242857D01*
X143928571Y-89242857D01*
X143814285Y-89300000D01*
X143757142Y-89414285D01*
X143757142Y-89528571D01*
X144328571Y-89642857D01*
X143242857Y-90042857D02*
X143242857Y-89242857D01*
X143242857Y-89357142D02*
X143185714Y-89300000D01*
X143071428Y-89242857D01*
X142900000Y-89242857D01*
X142785714Y-89300000D01*
X142728571Y-89414285D01*
X142728571Y-90042857D01*
X142728571Y-89414285D02*
X142671428Y-89300000D01*
X142557142Y-89242857D01*
X142385714Y-89242857D01*
X142271428Y-89300000D01*
X142214285Y-89414285D01*
X142214285Y-90042857D01*
X141471428Y-90042857D02*
X141585714Y-89985714D01*
X141642857Y-89928571D01*
X141700000Y-89814285D01*
X141700000Y-89471428D01*
X141642857Y-89357142D01*
X141585714Y-89300000D01*
X141471428Y-89242857D01*
X141300000Y-89242857D01*
X141185714Y-89300000D01*
X141128571Y-89357142D01*
X141071428Y-89471428D01*
X141071428Y-89814285D01*
X141128571Y-89928571D01*
X141185714Y-89985714D01*
X141300000Y-90042857D01*
X141471428Y-90042857D01*
X140557142Y-89242857D02*
X140557142Y-90042857D01*
X140557142Y-89357142D02*
X140500000Y-89300000D01*
X140385714Y-89242857D01*
X140214285Y-89242857D01*
X140100000Y-89300000D01*
X140042857Y-89414285D01*
X140042857Y-90042857D01*
X139471428Y-90042857D02*
X139471428Y-88842857D01*
X138957142Y-90042857D02*
X138957142Y-89414285D01*
X139014285Y-89300000D01*
X139128571Y-89242857D01*
X139300000Y-89242857D01*
X139414285Y-89300000D01*
X139471428Y-89357142D01*
X137928571Y-89985714D02*
X138042857Y-90042857D01*
X138271428Y-90042857D01*
X138385714Y-89985714D01*
X138442857Y-89871428D01*
X138442857Y-89414285D01*
X138385714Y-89300000D01*
X138271428Y-89242857D01*
X138042857Y-89242857D01*
X137928571Y-89300000D01*
X137871428Y-89414285D01*
X137871428Y-89528571D01*
X138442857Y-89642857D01*
X136842857Y-90042857D02*
X136842857Y-89414285D01*
X136900000Y-89300000D01*
X137014285Y-89242857D01*
X137242857Y-89242857D01*
X137357142Y-89300000D01*
X136842857Y-89985714D02*
X136957142Y-90042857D01*
X137242857Y-90042857D01*
X137357142Y-89985714D01*
X137414285Y-89871428D01*
X137414285Y-89757142D01*
X137357142Y-89642857D01*
X137242857Y-89585714D01*
X136957142Y-89585714D01*
X136842857Y-89528571D01*
X135757142Y-90042857D02*
X135757142Y-88842857D01*
X135757142Y-89985714D02*
X135871428Y-90042857D01*
X136100000Y-90042857D01*
X136214285Y-89985714D01*
X136271428Y-89928571D01*
X136328571Y-89814285D01*
X136328571Y-89471428D01*
X136271428Y-89357142D01*
X136214285Y-89300000D01*
X136100000Y-89242857D01*
X135871428Y-89242857D01*
X135757142Y-89300000D01*
D11*
G04 #@! TO.C,G1*
G36*
X140547726Y-85868521D02*
X140358823Y-85918016D01*
X140296800Y-85955444D01*
X140376660Y-85995050D01*
X140547012Y-85986402D01*
X140704015Y-85940613D01*
X140744930Y-85907476D01*
X140703268Y-85859127D01*
X140547726Y-85868521D01*
X140547726Y-85868521D01*
G37*
X140547726Y-85868521D02*
X140358823Y-85918016D01*
X140296800Y-85955444D01*
X140376660Y-85995050D01*
X140547012Y-85986402D01*
X140704015Y-85940613D01*
X140744930Y-85907476D01*
X140703268Y-85859127D01*
X140547726Y-85868521D01*
G36*
X140093600Y-85943600D02*
X140144400Y-85994400D01*
X140195200Y-85943600D01*
X140144400Y-85892800D01*
X140093600Y-85943600D01*
X140093600Y-85943600D01*
G37*
X140093600Y-85943600D02*
X140144400Y-85994400D01*
X140195200Y-85943600D01*
X140144400Y-85892800D01*
X140093600Y-85943600D01*
G36*
X140985394Y-76793838D02*
X140721516Y-76906712D01*
X140418572Y-76951999D01*
X140087741Y-77038664D01*
X139691857Y-77280976D01*
X139255890Y-77652415D01*
X138804812Y-78126459D01*
X138363597Y-78676587D01*
X137957216Y-79276279D01*
X137610641Y-79899013D01*
X137575492Y-79971441D01*
X137390825Y-80374734D01*
X137278873Y-80687908D01*
X137221892Y-80991716D01*
X137202136Y-81366910D01*
X137200815Y-81676400D01*
X137209340Y-82140006D01*
X137241035Y-82469529D01*
X137310195Y-82733894D01*
X137431112Y-83002024D01*
X137503955Y-83138149D01*
X137762243Y-83517006D01*
X138148090Y-83962818D01*
X138620752Y-84428683D01*
X138641458Y-84447591D01*
X138971944Y-84759779D01*
X139230945Y-85026325D01*
X139390102Y-85216528D01*
X139425242Y-85296077D01*
X139448345Y-85344485D01*
X139509000Y-85329841D01*
X139664260Y-85361597D01*
X139862791Y-85508801D01*
X139887587Y-85534205D01*
X140198761Y-85750819D01*
X140541647Y-85769021D01*
X140920151Y-85588568D01*
X141083908Y-85459398D01*
X141351240Y-85244022D01*
X141719576Y-84969279D01*
X141850403Y-84876800D01*
X139433200Y-84876800D01*
X139428556Y-84970572D01*
X139394393Y-84978400D01*
X139250763Y-84904257D01*
X139230000Y-84876800D01*
X139234645Y-84783027D01*
X139268808Y-84775200D01*
X139412438Y-84849342D01*
X139433200Y-84876800D01*
X141850403Y-84876800D01*
X142119549Y-84686548D01*
X142215527Y-84621198D01*
X142428419Y-84467211D01*
X139585600Y-84467211D01*
X139511127Y-84523113D01*
X139433200Y-84507141D01*
X139299519Y-84435027D01*
X139280800Y-84408729D01*
X139363765Y-84373213D01*
X139433200Y-84368800D01*
X138976000Y-84368800D01*
X138938827Y-84452428D01*
X138908267Y-84436533D01*
X138896108Y-84315957D01*
X138908267Y-84301066D01*
X138968668Y-84315013D01*
X138976000Y-84368800D01*
X139433200Y-84368800D01*
X139568432Y-84421970D01*
X139585600Y-84467211D01*
X142428419Y-84467211D01*
X142718296Y-84257540D01*
X142985021Y-84013200D01*
X138569600Y-84013200D01*
X138518800Y-84064000D01*
X138468000Y-84013200D01*
X138518800Y-83962400D01*
X138569600Y-84013200D01*
X142985021Y-84013200D01*
X143085394Y-83921252D01*
X143105817Y-83894666D01*
X139145334Y-83894666D01*
X139131387Y-83955067D01*
X139077600Y-83962400D01*
X138993972Y-83925226D01*
X139009867Y-83894666D01*
X139130443Y-83882507D01*
X139145334Y-83894666D01*
X143105817Y-83894666D01*
X143356774Y-83567992D01*
X138671200Y-83567992D01*
X138608602Y-83623076D01*
X138569600Y-83606800D01*
X138471794Y-83472209D01*
X138468000Y-83442407D01*
X138530599Y-83387323D01*
X138569600Y-83403600D01*
X138667407Y-83538190D01*
X138671200Y-83567992D01*
X143356774Y-83567992D01*
X143366191Y-83555735D01*
X143610053Y-83104390D01*
X143688304Y-82932696D01*
X143928801Y-82267914D01*
X144019674Y-81666219D01*
X143968103Y-81061458D01*
X143916319Y-80831310D01*
X143842793Y-80563265D01*
X142217429Y-80563265D01*
X142216828Y-80577520D01*
X142185787Y-80620526D01*
X142120852Y-80491389D01*
X142100531Y-80431800D01*
X141997800Y-80177164D01*
X141919430Y-80119695D01*
X141868646Y-80254463D01*
X141848671Y-80576537D01*
X141851426Y-80812762D01*
X141880492Y-81207561D01*
X141935931Y-81433348D01*
X142010614Y-81480202D01*
X142097412Y-81338201D01*
X142138071Y-81211667D01*
X142188925Y-81054895D01*
X142211132Y-81087454D01*
X142217073Y-81173480D01*
X142148801Y-81439962D01*
X141948629Y-81591313D01*
X141771187Y-81604093D01*
X141651744Y-81556953D01*
X141583296Y-81426195D01*
X141546998Y-81162787D01*
X141536409Y-80993246D01*
X141541019Y-80804696D01*
X140902228Y-80804696D01*
X140863465Y-80980634D01*
X140807989Y-81016000D01*
X140751287Y-80941854D01*
X140766451Y-80867790D01*
X140773280Y-80696656D01*
X140726771Y-80448430D01*
X140649229Y-80200859D01*
X140562960Y-80031689D01*
X140517521Y-80000131D01*
X140484860Y-80093502D01*
X140460701Y-80340362D01*
X140449498Y-80691044D01*
X140449200Y-80762141D01*
X140457360Y-81194786D01*
X140485534Y-81437512D01*
X140539268Y-81503087D01*
X140624106Y-81404276D01*
X140680798Y-81295400D01*
X140762878Y-81157663D01*
X140795720Y-81204139D01*
X140797924Y-81237342D01*
X140742652Y-81416617D01*
X140609613Y-81607942D01*
X140465312Y-81721491D01*
X140435264Y-81727200D01*
X140315777Y-81684785D01*
X140188521Y-81622025D01*
X140061095Y-81501432D01*
X140002445Y-81280913D01*
X139992000Y-81027586D01*
X140027934Y-80545193D01*
X140124177Y-80175071D01*
X140263389Y-79934211D01*
X140428233Y-79839606D01*
X140601369Y-79908246D01*
X140765459Y-80157124D01*
X140798444Y-80237281D01*
X140880300Y-80536208D01*
X140902228Y-80804696D01*
X141541019Y-80804696D01*
X141548069Y-80516448D01*
X141634956Y-80183741D01*
X141789982Y-80016126D01*
X141871601Y-80000000D01*
X142037624Y-80088492D01*
X142168387Y-80302154D01*
X142217429Y-80563265D01*
X143842793Y-80563265D01*
X143783422Y-80346826D01*
X143646037Y-79954158D01*
X143478125Y-79612853D01*
X143253646Y-79282463D01*
X142946558Y-78922537D01*
X142530823Y-78492624D01*
X142268468Y-78233798D01*
X139449477Y-78233798D01*
X139433200Y-78272800D01*
X139298610Y-78370606D01*
X139268808Y-78374400D01*
X139215678Y-78314021D01*
X139047461Y-78314021D01*
X138976000Y-78374400D01*
X138813885Y-78465779D01*
X138792286Y-78431363D01*
X138823600Y-78374400D01*
X138971979Y-78277801D01*
X139007397Y-78274355D01*
X139047461Y-78314021D01*
X139215678Y-78314021D01*
X139213724Y-78311801D01*
X139230000Y-78272800D01*
X139364591Y-78174993D01*
X139394393Y-78171200D01*
X139449477Y-78233798D01*
X142268468Y-78233798D01*
X142201800Y-78168027D01*
X141780303Y-77747125D01*
X141759301Y-77724379D01*
X140047849Y-77724379D01*
X139992000Y-77815600D01*
X139839018Y-77943667D01*
X139763920Y-77968000D01*
X139732952Y-77906820D01*
X139788800Y-77815600D01*
X139912693Y-77711884D01*
X139629850Y-77711884D01*
X139595352Y-77811227D01*
X139559674Y-77870159D01*
X139441088Y-78039728D01*
X139390777Y-78037515D01*
X139382400Y-77928070D01*
X139464290Y-77770887D01*
X139533314Y-77728629D01*
X139629850Y-77711884D01*
X139912693Y-77711884D01*
X139941783Y-77687532D01*
X140016881Y-77663200D01*
X140047849Y-77724379D01*
X141759301Y-77724379D01*
X141491218Y-77434043D01*
X141436638Y-77362837D01*
X140147143Y-77362837D01*
X140113697Y-77439397D01*
X139997997Y-77460000D01*
X139829391Y-77443636D01*
X139788800Y-77420070D01*
X139868953Y-77343175D01*
X140028554Y-77317206D01*
X140146314Y-77361535D01*
X140147143Y-77362837D01*
X141436638Y-77362837D01*
X141313995Y-77202838D01*
X141228079Y-77027569D01*
X141211200Y-76917666D01*
X141198832Y-76724300D01*
X141125539Y-76704260D01*
X140985394Y-76793838D01*
X140985394Y-76793838D01*
G37*
X140985394Y-76793838D02*
X140721516Y-76906712D01*
X140418572Y-76951999D01*
X140087741Y-77038664D01*
X139691857Y-77280976D01*
X139255890Y-77652415D01*
X138804812Y-78126459D01*
X138363597Y-78676587D01*
X137957216Y-79276279D01*
X137610641Y-79899013D01*
X137575492Y-79971441D01*
X137390825Y-80374734D01*
X137278873Y-80687908D01*
X137221892Y-80991716D01*
X137202136Y-81366910D01*
X137200815Y-81676400D01*
X137209340Y-82140006D01*
X137241035Y-82469529D01*
X137310195Y-82733894D01*
X137431112Y-83002024D01*
X137503955Y-83138149D01*
X137762243Y-83517006D01*
X138148090Y-83962818D01*
X138620752Y-84428683D01*
X138641458Y-84447591D01*
X138971944Y-84759779D01*
X139230945Y-85026325D01*
X139390102Y-85216528D01*
X139425242Y-85296077D01*
X139448345Y-85344485D01*
X139509000Y-85329841D01*
X139664260Y-85361597D01*
X139862791Y-85508801D01*
X139887587Y-85534205D01*
X140198761Y-85750819D01*
X140541647Y-85769021D01*
X140920151Y-85588568D01*
X141083908Y-85459398D01*
X141351240Y-85244022D01*
X141719576Y-84969279D01*
X141850403Y-84876800D01*
X139433200Y-84876800D01*
X139428556Y-84970572D01*
X139394393Y-84978400D01*
X139250763Y-84904257D01*
X139230000Y-84876800D01*
X139234645Y-84783027D01*
X139268808Y-84775200D01*
X139412438Y-84849342D01*
X139433200Y-84876800D01*
X141850403Y-84876800D01*
X142119549Y-84686548D01*
X142215527Y-84621198D01*
X142428419Y-84467211D01*
X139585600Y-84467211D01*
X139511127Y-84523113D01*
X139433200Y-84507141D01*
X139299519Y-84435027D01*
X139280800Y-84408729D01*
X139363765Y-84373213D01*
X139433200Y-84368800D01*
X138976000Y-84368800D01*
X138938827Y-84452428D01*
X138908267Y-84436533D01*
X138896108Y-84315957D01*
X138908267Y-84301066D01*
X138968668Y-84315013D01*
X138976000Y-84368800D01*
X139433200Y-84368800D01*
X139568432Y-84421970D01*
X139585600Y-84467211D01*
X142428419Y-84467211D01*
X142718296Y-84257540D01*
X142985021Y-84013200D01*
X138569600Y-84013200D01*
X138518800Y-84064000D01*
X138468000Y-84013200D01*
X138518800Y-83962400D01*
X138569600Y-84013200D01*
X142985021Y-84013200D01*
X143085394Y-83921252D01*
X143105817Y-83894666D01*
X139145334Y-83894666D01*
X139131387Y-83955067D01*
X139077600Y-83962400D01*
X138993972Y-83925226D01*
X139009867Y-83894666D01*
X139130443Y-83882507D01*
X139145334Y-83894666D01*
X143105817Y-83894666D01*
X143356774Y-83567992D01*
X138671200Y-83567992D01*
X138608602Y-83623076D01*
X138569600Y-83606800D01*
X138471794Y-83472209D01*
X138468000Y-83442407D01*
X138530599Y-83387323D01*
X138569600Y-83403600D01*
X138667407Y-83538190D01*
X138671200Y-83567992D01*
X143356774Y-83567992D01*
X143366191Y-83555735D01*
X143610053Y-83104390D01*
X143688304Y-82932696D01*
X143928801Y-82267914D01*
X144019674Y-81666219D01*
X143968103Y-81061458D01*
X143916319Y-80831310D01*
X143842793Y-80563265D01*
X142217429Y-80563265D01*
X142216828Y-80577520D01*
X142185787Y-80620526D01*
X142120852Y-80491389D01*
X142100531Y-80431800D01*
X141997800Y-80177164D01*
X141919430Y-80119695D01*
X141868646Y-80254463D01*
X141848671Y-80576537D01*
X141851426Y-80812762D01*
X141880492Y-81207561D01*
X141935931Y-81433348D01*
X142010614Y-81480202D01*
X142097412Y-81338201D01*
X142138071Y-81211667D01*
X142188925Y-81054895D01*
X142211132Y-81087454D01*
X142217073Y-81173480D01*
X142148801Y-81439962D01*
X141948629Y-81591313D01*
X141771187Y-81604093D01*
X141651744Y-81556953D01*
X141583296Y-81426195D01*
X141546998Y-81162787D01*
X141536409Y-80993246D01*
X141541019Y-80804696D01*
X140902228Y-80804696D01*
X140863465Y-80980634D01*
X140807989Y-81016000D01*
X140751287Y-80941854D01*
X140766451Y-80867790D01*
X140773280Y-80696656D01*
X140726771Y-80448430D01*
X140649229Y-80200859D01*
X140562960Y-80031689D01*
X140517521Y-80000131D01*
X140484860Y-80093502D01*
X140460701Y-80340362D01*
X140449498Y-80691044D01*
X140449200Y-80762141D01*
X140457360Y-81194786D01*
X140485534Y-81437512D01*
X140539268Y-81503087D01*
X140624106Y-81404276D01*
X140680798Y-81295400D01*
X140762878Y-81157663D01*
X140795720Y-81204139D01*
X140797924Y-81237342D01*
X140742652Y-81416617D01*
X140609613Y-81607942D01*
X140465312Y-81721491D01*
X140435264Y-81727200D01*
X140315777Y-81684785D01*
X140188521Y-81622025D01*
X140061095Y-81501432D01*
X140002445Y-81280913D01*
X139992000Y-81027586D01*
X140027934Y-80545193D01*
X140124177Y-80175071D01*
X140263389Y-79934211D01*
X140428233Y-79839606D01*
X140601369Y-79908246D01*
X140765459Y-80157124D01*
X140798444Y-80237281D01*
X140880300Y-80536208D01*
X140902228Y-80804696D01*
X141541019Y-80804696D01*
X141548069Y-80516448D01*
X141634956Y-80183741D01*
X141789982Y-80016126D01*
X141871601Y-80000000D01*
X142037624Y-80088492D01*
X142168387Y-80302154D01*
X142217429Y-80563265D01*
X143842793Y-80563265D01*
X143783422Y-80346826D01*
X143646037Y-79954158D01*
X143478125Y-79612853D01*
X143253646Y-79282463D01*
X142946558Y-78922537D01*
X142530823Y-78492624D01*
X142268468Y-78233798D01*
X139449477Y-78233798D01*
X139433200Y-78272800D01*
X139298610Y-78370606D01*
X139268808Y-78374400D01*
X139215678Y-78314021D01*
X139047461Y-78314021D01*
X138976000Y-78374400D01*
X138813885Y-78465779D01*
X138792286Y-78431363D01*
X138823600Y-78374400D01*
X138971979Y-78277801D01*
X139007397Y-78274355D01*
X139047461Y-78314021D01*
X139215678Y-78314021D01*
X139213724Y-78311801D01*
X139230000Y-78272800D01*
X139364591Y-78174993D01*
X139394393Y-78171200D01*
X139449477Y-78233798D01*
X142268468Y-78233798D01*
X142201800Y-78168027D01*
X141780303Y-77747125D01*
X141759301Y-77724379D01*
X140047849Y-77724379D01*
X139992000Y-77815600D01*
X139839018Y-77943667D01*
X139763920Y-77968000D01*
X139732952Y-77906820D01*
X139788800Y-77815600D01*
X139912693Y-77711884D01*
X139629850Y-77711884D01*
X139595352Y-77811227D01*
X139559674Y-77870159D01*
X139441088Y-78039728D01*
X139390777Y-78037515D01*
X139382400Y-77928070D01*
X139464290Y-77770887D01*
X139533314Y-77728629D01*
X139629850Y-77711884D01*
X139912693Y-77711884D01*
X139941783Y-77687532D01*
X140016881Y-77663200D01*
X140047849Y-77724379D01*
X141759301Y-77724379D01*
X141491218Y-77434043D01*
X141436638Y-77362837D01*
X140147143Y-77362837D01*
X140113697Y-77439397D01*
X139997997Y-77460000D01*
X139829391Y-77443636D01*
X139788800Y-77420070D01*
X139868953Y-77343175D01*
X140028554Y-77317206D01*
X140146314Y-77361535D01*
X140147143Y-77362837D01*
X141436638Y-77362837D01*
X141313995Y-77202838D01*
X141228079Y-77027569D01*
X141211200Y-76917666D01*
X141198832Y-76724300D01*
X141125539Y-76704260D01*
X140985394Y-76793838D01*
G36*
X141516000Y-85232400D02*
X141566800Y-85283200D01*
X141617600Y-85232400D01*
X141566800Y-85181600D01*
X141516000Y-85232400D01*
X141516000Y-85232400D01*
G37*
X141516000Y-85232400D02*
X141566800Y-85283200D01*
X141617600Y-85232400D01*
X141566800Y-85181600D01*
X141516000Y-85232400D01*
G36*
X141670212Y-76261164D02*
X141670964Y-76282395D01*
X141860355Y-76331335D01*
X141894456Y-76339447D01*
X142162963Y-76429423D01*
X142424277Y-76556995D01*
X142623871Y-76689618D01*
X142707219Y-76794749D01*
X142698519Y-76819348D01*
X142584294Y-76810136D01*
X142352082Y-76726898D01*
X142184088Y-76650921D01*
X141823757Y-76500111D01*
X141593308Y-76449114D01*
X141508024Y-76489866D01*
X141583188Y-76614304D01*
X141834081Y-76814364D01*
X141851676Y-76826317D01*
X142281821Y-77063862D01*
X142667764Y-77153066D01*
X142740294Y-77155200D01*
X142992947Y-77136364D01*
X143132161Y-77089382D01*
X143141600Y-77071310D01*
X143055563Y-76903307D01*
X142835242Y-76701868D01*
X142537326Y-76502979D01*
X142218505Y-76342630D01*
X141935467Y-76256810D01*
X141849775Y-76251199D01*
X141670212Y-76261164D01*
X141670212Y-76261164D01*
G37*
X141670212Y-76261164D02*
X141670964Y-76282395D01*
X141860355Y-76331335D01*
X141894456Y-76339447D01*
X142162963Y-76429423D01*
X142424277Y-76556995D01*
X142623871Y-76689618D01*
X142707219Y-76794749D01*
X142698519Y-76819348D01*
X142584294Y-76810136D01*
X142352082Y-76726898D01*
X142184088Y-76650921D01*
X141823757Y-76500111D01*
X141593308Y-76449114D01*
X141508024Y-76489866D01*
X141583188Y-76614304D01*
X141834081Y-76814364D01*
X141851676Y-76826317D01*
X142281821Y-77063862D01*
X142667764Y-77153066D01*
X142740294Y-77155200D01*
X142992947Y-77136364D01*
X143132161Y-77089382D01*
X143141600Y-77071310D01*
X143055563Y-76903307D01*
X142835242Y-76701868D01*
X142537326Y-76502979D01*
X142218505Y-76342630D01*
X141935467Y-76256810D01*
X141849775Y-76251199D01*
X141670212Y-76261164D01*
G36*
X139435948Y-76156977D02*
X139228340Y-76286157D01*
X139208240Y-76302114D01*
X138925200Y-76529266D01*
X139200623Y-76635006D01*
X139558724Y-76731030D01*
X139988746Y-76789471D01*
X140401462Y-76802655D01*
X140703200Y-76764253D01*
X140869479Y-76702964D01*
X140853352Y-76652809D01*
X140771091Y-76617122D01*
X140515625Y-76558482D01*
X140345287Y-76545600D01*
X140129509Y-76501253D01*
X140034109Y-76429937D01*
X140043132Y-76376266D01*
X139856534Y-76376266D01*
X139842587Y-76436667D01*
X139788800Y-76444000D01*
X139705172Y-76406826D01*
X139721067Y-76376266D01*
X139841643Y-76364107D01*
X139856534Y-76376266D01*
X140043132Y-76376266D01*
X140045328Y-76363209D01*
X140218682Y-76364468D01*
X140358313Y-76387043D01*
X140600378Y-76421876D01*
X140674629Y-76399111D01*
X140629415Y-76332401D01*
X140460455Y-76245615D01*
X140171075Y-76168357D01*
X139998055Y-76139976D01*
X139662926Y-76114325D01*
X139435948Y-76156977D01*
X139435948Y-76156977D01*
G37*
X139435948Y-76156977D02*
X139228340Y-76286157D01*
X139208240Y-76302114D01*
X138925200Y-76529266D01*
X139200623Y-76635006D01*
X139558724Y-76731030D01*
X139988746Y-76789471D01*
X140401462Y-76802655D01*
X140703200Y-76764253D01*
X140869479Y-76702964D01*
X140853352Y-76652809D01*
X140771091Y-76617122D01*
X140515625Y-76558482D01*
X140345287Y-76545600D01*
X140129509Y-76501253D01*
X140034109Y-76429937D01*
X140043132Y-76376266D01*
X139856534Y-76376266D01*
X139842587Y-76436667D01*
X139788800Y-76444000D01*
X139705172Y-76406826D01*
X139721067Y-76376266D01*
X139841643Y-76364107D01*
X139856534Y-76376266D01*
X140043132Y-76376266D01*
X140045328Y-76363209D01*
X140218682Y-76364468D01*
X140358313Y-76387043D01*
X140600378Y-76421876D01*
X140674629Y-76399111D01*
X140629415Y-76332401D01*
X140460455Y-76245615D01*
X140171075Y-76168357D01*
X139998055Y-76139976D01*
X139662926Y-76114325D01*
X139435948Y-76156977D01*
G36*
X139793089Y-74660832D02*
X139764774Y-74840510D01*
X139855414Y-75116467D01*
X140039973Y-75441608D01*
X140293417Y-75768833D01*
X140484413Y-75961400D01*
X140781335Y-76208172D01*
X140971556Y-76322196D01*
X141043264Y-76300827D01*
X140984647Y-76141417D01*
X140937814Y-76063000D01*
X140769021Y-75817802D01*
X140538470Y-75508835D01*
X140415233Y-75351800D01*
X140245672Y-75117203D01*
X140167721Y-74960381D01*
X140183515Y-74920000D01*
X140292693Y-74997295D01*
X140480405Y-75202434D01*
X140710830Y-75495294D01*
X140772360Y-75579527D01*
X140997852Y-75880073D01*
X141178045Y-76096257D01*
X141282211Y-76191982D01*
X141293827Y-76192040D01*
X141311114Y-76049654D01*
X141248491Y-75793710D01*
X141130030Y-75485228D01*
X140979805Y-75185229D01*
X140821888Y-74954733D01*
X140793856Y-74924686D01*
X140520799Y-74723476D01*
X140217701Y-74604247D01*
X139949084Y-74584010D01*
X139793089Y-74660832D01*
X139793089Y-74660832D01*
G37*
X139793089Y-74660832D02*
X139764774Y-74840510D01*
X139855414Y-75116467D01*
X140039973Y-75441608D01*
X140293417Y-75768833D01*
X140484413Y-75961400D01*
X140781335Y-76208172D01*
X140971556Y-76322196D01*
X141043264Y-76300827D01*
X140984647Y-76141417D01*
X140937814Y-76063000D01*
X140769021Y-75817802D01*
X140538470Y-75508835D01*
X140415233Y-75351800D01*
X140245672Y-75117203D01*
X140167721Y-74960381D01*
X140183515Y-74920000D01*
X140292693Y-74997295D01*
X140480405Y-75202434D01*
X140710830Y-75495294D01*
X140772360Y-75579527D01*
X140997852Y-75880073D01*
X141178045Y-76096257D01*
X141282211Y-76191982D01*
X141293827Y-76192040D01*
X141311114Y-76049654D01*
X141248491Y-75793710D01*
X141130030Y-75485228D01*
X140979805Y-75185229D01*
X140821888Y-74954733D01*
X140793856Y-74924686D01*
X140520799Y-74723476D01*
X140217701Y-74604247D01*
X139949084Y-74584010D01*
X139793089Y-74660832D01*
D12*
G36*
X130134239Y-101311467D02*
X130448282Y-101373934D01*
X131039926Y-101619001D01*
X131568802Y-101972385D01*
X131572395Y-101974786D01*
X132025214Y-102427605D01*
X132025216Y-102427608D01*
X132380999Y-102960074D01*
X132626066Y-103551718D01*
X132626066Y-103551719D01*
X132717482Y-104011295D01*
X132751000Y-104179804D01*
X132751000Y-104820196D01*
X132626066Y-105448282D01*
X132380999Y-106039926D01*
X132157457Y-106374479D01*
X132025214Y-106572395D01*
X131572395Y-107025214D01*
X131572392Y-107025216D01*
X131039926Y-107380999D01*
X130448282Y-107626066D01*
X130134239Y-107688533D01*
X129820197Y-107751000D01*
X129179803Y-107751000D01*
X128865761Y-107688533D01*
X128551718Y-107626066D01*
X127960074Y-107380999D01*
X127427608Y-107025216D01*
X127427605Y-107025214D01*
X126974786Y-106572395D01*
X126842543Y-106374479D01*
X126619001Y-106039926D01*
X126373934Y-105448282D01*
X126249000Y-104820196D01*
X126249000Y-104179804D01*
X126282519Y-104011295D01*
X126373934Y-103551719D01*
X126373934Y-103551718D01*
X126619001Y-102960074D01*
X126974784Y-102427608D01*
X126974786Y-102427605D01*
X127427605Y-101974786D01*
X127431198Y-101972385D01*
X127960074Y-101619001D01*
X128551718Y-101373934D01*
X128865761Y-101311467D01*
X129179803Y-101249000D01*
X129820197Y-101249000D01*
X130134239Y-101311467D01*
X130134239Y-101311467D01*
G37*
G36*
X154134239Y-101311467D02*
X154448282Y-101373934D01*
X155039926Y-101619001D01*
X155568802Y-101972385D01*
X155572395Y-101974786D01*
X156025214Y-102427605D01*
X156025216Y-102427608D01*
X156380999Y-102960074D01*
X156626066Y-103551718D01*
X156626066Y-103551719D01*
X156717482Y-104011295D01*
X156751000Y-104179804D01*
X156751000Y-104820196D01*
X156626066Y-105448282D01*
X156380999Y-106039926D01*
X156157457Y-106374479D01*
X156025214Y-106572395D01*
X155572395Y-107025214D01*
X155572392Y-107025216D01*
X155039926Y-107380999D01*
X154448282Y-107626066D01*
X154134239Y-107688533D01*
X153820197Y-107751000D01*
X153179803Y-107751000D01*
X152865761Y-107688533D01*
X152551718Y-107626066D01*
X151960074Y-107380999D01*
X151427608Y-107025216D01*
X151427605Y-107025214D01*
X150974786Y-106572395D01*
X150842543Y-106374479D01*
X150619001Y-106039926D01*
X150373934Y-105448282D01*
X150249000Y-104820196D01*
X150249000Y-104179804D01*
X150282519Y-104011295D01*
X150373934Y-103551719D01*
X150373934Y-103551718D01*
X150619001Y-102960074D01*
X150974784Y-102427608D01*
X150974786Y-102427605D01*
X151427605Y-101974786D01*
X151431198Y-101972385D01*
X151960074Y-101619001D01*
X152551718Y-101373934D01*
X152865761Y-101311467D01*
X153179803Y-101249000D01*
X153820197Y-101249000D01*
X154134239Y-101311467D01*
X154134239Y-101311467D01*
G37*
G36*
X140602527Y-103488736D02*
X140702410Y-103508604D01*
X140984674Y-103625521D01*
X141238705Y-103795259D01*
X141454741Y-104011295D01*
X141624479Y-104265326D01*
X141741396Y-104547590D01*
X141801000Y-104847240D01*
X141801000Y-105152760D01*
X141741396Y-105452410D01*
X141624479Y-105734674D01*
X141454741Y-105988705D01*
X141238705Y-106204741D01*
X140984674Y-106374479D01*
X140702410Y-106491396D01*
X140602527Y-106511264D01*
X140402762Y-106551000D01*
X140097238Y-106551000D01*
X139897473Y-106511264D01*
X139797590Y-106491396D01*
X139515326Y-106374479D01*
X139261295Y-106204741D01*
X139045259Y-105988705D01*
X138875521Y-105734674D01*
X138758604Y-105452410D01*
X138699000Y-105152760D01*
X138699000Y-104847240D01*
X138758604Y-104547590D01*
X138875521Y-104265326D01*
X139045259Y-104011295D01*
X139261295Y-103795259D01*
X139515326Y-103625521D01*
X139797590Y-103508604D01*
X139897473Y-103488736D01*
X140097238Y-103449000D01*
X140402762Y-103449000D01*
X140602527Y-103488736D01*
X140602527Y-103488736D01*
G37*
G36*
X149352527Y-95988736D02*
X149452410Y-96008604D01*
X149734674Y-96125521D01*
X149988705Y-96295259D01*
X150204741Y-96511295D01*
X150374479Y-96765326D01*
X150491396Y-97047590D01*
X150491396Y-97047591D01*
X150551000Y-97347238D01*
X150551000Y-97652762D01*
X150511264Y-97852527D01*
X150491396Y-97952410D01*
X150374479Y-98234674D01*
X150204741Y-98488705D01*
X149988705Y-98704741D01*
X149734674Y-98874479D01*
X149452410Y-98991396D01*
X149352527Y-99011264D01*
X149152762Y-99051000D01*
X148847238Y-99051000D01*
X148647473Y-99011264D01*
X148547590Y-98991396D01*
X148265326Y-98874479D01*
X148011295Y-98704741D01*
X147795259Y-98488705D01*
X147625521Y-98234674D01*
X147508604Y-97952410D01*
X147488736Y-97852527D01*
X147449000Y-97652762D01*
X147449000Y-97347238D01*
X147508604Y-97047591D01*
X147508604Y-97047590D01*
X147625521Y-96765326D01*
X147795259Y-96511295D01*
X148011295Y-96295259D01*
X148265326Y-96125521D01*
X148547590Y-96008604D01*
X148647473Y-95988736D01*
X148847238Y-95949000D01*
X149152762Y-95949000D01*
X149352527Y-95988736D01*
X149352527Y-95988736D01*
G37*
G36*
X129352527Y-95488736D02*
X129452410Y-95508604D01*
X129734674Y-95625521D01*
X129988705Y-95795259D01*
X130204741Y-96011295D01*
X130374479Y-96265326D01*
X130476361Y-96511293D01*
X130491396Y-96547591D01*
X130534707Y-96765326D01*
X130551000Y-96847240D01*
X130551000Y-97152760D01*
X130491396Y-97452410D01*
X130374479Y-97734674D01*
X130204741Y-97988705D01*
X129988705Y-98204741D01*
X129734674Y-98374479D01*
X129452410Y-98491396D01*
X129352527Y-98511264D01*
X129152762Y-98551000D01*
X128847238Y-98551000D01*
X128647473Y-98511264D01*
X128547590Y-98491396D01*
X128265326Y-98374479D01*
X128011295Y-98204741D01*
X127795259Y-97988705D01*
X127625521Y-97734674D01*
X127508604Y-97452410D01*
X127449000Y-97152760D01*
X127449000Y-96847240D01*
X127465294Y-96765326D01*
X127508604Y-96547591D01*
X127523639Y-96511293D01*
X127625521Y-96265326D01*
X127795259Y-96011295D01*
X128011295Y-95795259D01*
X128265326Y-95625521D01*
X128547590Y-95508604D01*
X128647473Y-95488736D01*
X128847238Y-95449000D01*
X129152762Y-95449000D01*
X129352527Y-95488736D01*
X129352527Y-95488736D01*
G37*
G36*
X149352527Y-90988736D02*
X149452410Y-91008604D01*
X149734674Y-91125521D01*
X149988705Y-91295259D01*
X150204741Y-91511295D01*
X150374479Y-91765326D01*
X150491396Y-92047590D01*
X150551000Y-92347240D01*
X150551000Y-92652760D01*
X150491396Y-92952410D01*
X150374479Y-93234674D01*
X150204741Y-93488705D01*
X149988705Y-93704741D01*
X149734674Y-93874479D01*
X149452410Y-93991396D01*
X149352527Y-94011264D01*
X149152762Y-94051000D01*
X148847238Y-94051000D01*
X148647473Y-94011264D01*
X148547590Y-93991396D01*
X148265326Y-93874479D01*
X148011295Y-93704741D01*
X147795259Y-93488705D01*
X147625521Y-93234674D01*
X147508604Y-92952410D01*
X147449000Y-92652760D01*
X147449000Y-92347240D01*
X147508604Y-92047590D01*
X147625521Y-91765326D01*
X147795259Y-91511295D01*
X148011295Y-91295259D01*
X148265326Y-91125521D01*
X148547590Y-91008604D01*
X148647473Y-90988736D01*
X148847238Y-90949000D01*
X149152762Y-90949000D01*
X149352527Y-90988736D01*
X149352527Y-90988736D01*
G37*
G36*
X149352527Y-85988736D02*
X149452410Y-86008604D01*
X149734674Y-86125521D01*
X149988705Y-86295259D01*
X150204741Y-86511295D01*
X150374479Y-86765326D01*
X150491396Y-87047590D01*
X150551000Y-87347240D01*
X150551000Y-87652760D01*
X150491396Y-87952410D01*
X150374479Y-88234674D01*
X150204741Y-88488705D01*
X149988705Y-88704741D01*
X149734674Y-88874479D01*
X149452410Y-88991396D01*
X149352527Y-89011264D01*
X149152762Y-89051000D01*
X148847238Y-89051000D01*
X148647473Y-89011264D01*
X148547590Y-88991396D01*
X148265326Y-88874479D01*
X148011295Y-88704741D01*
X147795259Y-88488705D01*
X147625521Y-88234674D01*
X147508604Y-87952410D01*
X147449000Y-87652760D01*
X147449000Y-87347240D01*
X147508604Y-87047590D01*
X147625521Y-86765326D01*
X147795259Y-86511295D01*
X148011295Y-86295259D01*
X148265326Y-86125521D01*
X148547590Y-86008604D01*
X148647473Y-85988736D01*
X148847238Y-85949000D01*
X149152762Y-85949000D01*
X149352527Y-85988736D01*
X149352527Y-85988736D01*
G37*
G36*
X149352527Y-80988736D02*
X149452410Y-81008604D01*
X149734674Y-81125521D01*
X149988705Y-81295259D01*
X150204741Y-81511295D01*
X150374479Y-81765326D01*
X150491396Y-82047590D01*
X150551000Y-82347240D01*
X150551000Y-82652760D01*
X150491396Y-82952410D01*
X150374479Y-83234674D01*
X150204741Y-83488705D01*
X149988705Y-83704741D01*
X149734674Y-83874479D01*
X149452410Y-83991396D01*
X149352527Y-84011264D01*
X149152762Y-84051000D01*
X148847238Y-84051000D01*
X148647473Y-84011264D01*
X148547590Y-83991396D01*
X148265326Y-83874479D01*
X148011295Y-83704741D01*
X147795259Y-83488705D01*
X147625521Y-83234674D01*
X147508604Y-82952410D01*
X147449000Y-82652760D01*
X147449000Y-82347240D01*
X147508604Y-82047590D01*
X147625521Y-81765326D01*
X147795259Y-81511295D01*
X148011295Y-81295259D01*
X148265326Y-81125521D01*
X148547590Y-81008604D01*
X148647473Y-80988736D01*
X148847238Y-80949000D01*
X149152762Y-80949000D01*
X149352527Y-80988736D01*
X149352527Y-80988736D01*
G37*
G36*
X130134239Y-74311467D02*
X130448282Y-74373934D01*
X131039926Y-74619001D01*
X131568802Y-74972385D01*
X131572395Y-74974786D01*
X132025214Y-75427605D01*
X132025216Y-75427608D01*
X132380999Y-75960074D01*
X132626066Y-76551718D01*
X132751000Y-77179804D01*
X132751000Y-77820196D01*
X132626066Y-78448282D01*
X132380999Y-79039926D01*
X132027615Y-79568802D01*
X132025214Y-79572395D01*
X131572395Y-80025214D01*
X131572392Y-80025216D01*
X131039926Y-80380999D01*
X130448282Y-80626066D01*
X130134239Y-80688533D01*
X129820197Y-80751000D01*
X129179803Y-80751000D01*
X128865761Y-80688533D01*
X128551718Y-80626066D01*
X127960074Y-80380999D01*
X127427608Y-80025216D01*
X127427605Y-80025214D01*
X126974786Y-79572395D01*
X126972385Y-79568802D01*
X126619001Y-79039926D01*
X126373934Y-78448282D01*
X126249000Y-77820196D01*
X126249000Y-77179804D01*
X126373934Y-76551718D01*
X126619001Y-75960074D01*
X126974784Y-75427608D01*
X126974786Y-75427605D01*
X127427605Y-74974786D01*
X127431198Y-74972385D01*
X127960074Y-74619001D01*
X128551718Y-74373934D01*
X128865761Y-74311467D01*
X129179803Y-74249000D01*
X129820197Y-74249000D01*
X130134239Y-74311467D01*
X130134239Y-74311467D01*
G37*
G36*
X154134239Y-74311467D02*
X154448282Y-74373934D01*
X155039926Y-74619001D01*
X155568802Y-74972385D01*
X155572395Y-74974786D01*
X156025214Y-75427605D01*
X156025216Y-75427608D01*
X156380999Y-75960074D01*
X156626066Y-76551718D01*
X156751000Y-77179804D01*
X156751000Y-77820196D01*
X156626066Y-78448282D01*
X156380999Y-79039926D01*
X156027615Y-79568802D01*
X156025214Y-79572395D01*
X155572395Y-80025214D01*
X155572392Y-80025216D01*
X155039926Y-80380999D01*
X154448282Y-80626066D01*
X154134239Y-80688533D01*
X153820197Y-80751000D01*
X153179803Y-80751000D01*
X152865761Y-80688533D01*
X152551718Y-80626066D01*
X151960074Y-80380999D01*
X151427608Y-80025216D01*
X151427605Y-80025214D01*
X150974786Y-79572395D01*
X150972385Y-79568802D01*
X150619001Y-79039926D01*
X150373934Y-78448282D01*
X150249000Y-77820196D01*
X150249000Y-77179804D01*
X150373934Y-76551718D01*
X150619001Y-75960074D01*
X150974784Y-75427608D01*
X150974786Y-75427605D01*
X151427605Y-74974786D01*
X151431198Y-74972385D01*
X151960074Y-74619001D01*
X152551718Y-74373934D01*
X152865761Y-74311467D01*
X153179803Y-74249000D01*
X153820197Y-74249000D01*
X154134239Y-74311467D01*
X154134239Y-74311467D01*
G37*
M02*
