G04 #@! TF.GenerationSoftware,KiCad,Pcbnew,5.0.1*
G04 #@! TF.CreationDate,2019-02-25T23:01:50+01:00*
G04 #@! TF.ProjectId,MCP1642 Eval Board,4D435031363432204576616C20426F61,rev?*
G04 #@! TF.SameCoordinates,Original*
G04 #@! TF.FileFunction,Copper,L2,Bot,Signal*
G04 #@! TF.FilePolarity,Positive*
%FSLAX46Y46*%
G04 Gerber Fmt 4.6, Leading zero omitted, Abs format (unit mm)*
G04 Created by KiCad (PCBNEW 5.0.1) date Mon 25 Feb 2019 11:01:50 PM CET*
%MOMM*%
%LPD*%
G01*
G04 APERTURE LIST*
G04 #@! TA.AperFunction,ComponentPad*
%ADD10C,6.400000*%
G04 #@! TD*
G04 #@! TA.AperFunction,ComponentPad*
%ADD11C,3.000000*%
G04 #@! TD*
G04 #@! TA.AperFunction,ViaPad*
%ADD12C,0.800000*%
G04 #@! TD*
G04 #@! TA.AperFunction,Conductor*
%ADD13C,0.100000*%
G04 #@! TD*
G04 APERTURE END LIST*
D10*
G04 #@! TO.P,H1,1*
G04 #@! TO.N,GND*
X153500000Y-77500000D03*
G04 #@! TD*
G04 #@! TO.P,H2,1*
G04 #@! TO.N,GND*
X153500000Y-104500000D03*
G04 #@! TD*
G04 #@! TO.P,H3,1*
G04 #@! TO.N,GND*
X129500000Y-104500000D03*
G04 #@! TD*
G04 #@! TO.P,H4,1*
G04 #@! TO.N,GND*
X129500000Y-77500000D03*
G04 #@! TD*
D11*
G04 #@! TO.P,J6,1*
G04 #@! TO.N,/PG*
X140250000Y-105000000D03*
G04 #@! TD*
G04 #@! TO.P,J5,1*
G04 #@! TO.N,GND*
X149000000Y-87500000D03*
G04 #@! TD*
G04 #@! TO.P,J4,1*
G04 #@! TO.N,/VOUT*
X149000000Y-97500000D03*
G04 #@! TD*
G04 #@! TO.P,J3,1*
G04 #@! TO.N,/EN*
X129000000Y-97000000D03*
G04 #@! TD*
G04 #@! TO.P,J2,1*
G04 #@! TO.N,GND*
X149000000Y-92500000D03*
G04 #@! TD*
G04 #@! TO.P,J1,1*
G04 #@! TO.N,/VIN*
X149000000Y-82500000D03*
G04 #@! TD*
D12*
G04 #@! TO.N,GND*
X135250000Y-94500000D03*
X137250000Y-94500000D03*
X136250000Y-94500000D03*
X136300000Y-98300000D03*
X138750000Y-93750000D03*
X139750000Y-93750000D03*
X140750000Y-93750000D03*
X141750000Y-93750000D03*
G04 #@! TD*
D13*
G04 #@! TO.N,GND*
G36*
X157375001Y-108375000D02*
X125625000Y-108375000D01*
X125625000Y-104592230D01*
X138200000Y-104592230D01*
X138200000Y-105407770D01*
X138512094Y-106161232D01*
X139088768Y-106737906D01*
X139842230Y-107050000D01*
X140657770Y-107050000D01*
X141411232Y-106737906D01*
X141987906Y-106161232D01*
X142300000Y-105407770D01*
X142300000Y-104592230D01*
X141987906Y-103838768D01*
X141411232Y-103262094D01*
X140657770Y-102950000D01*
X139842230Y-102950000D01*
X139088768Y-103262094D01*
X138512094Y-103838768D01*
X138200000Y-104592230D01*
X125625000Y-104592230D01*
X125625000Y-96592230D01*
X126950000Y-96592230D01*
X126950000Y-97407770D01*
X127262094Y-98161232D01*
X127838768Y-98737906D01*
X128592230Y-99050000D01*
X129407770Y-99050000D01*
X130161232Y-98737906D01*
X130737906Y-98161232D01*
X131050000Y-97407770D01*
X131050000Y-97092230D01*
X146950000Y-97092230D01*
X146950000Y-97907770D01*
X147262094Y-98661232D01*
X147838768Y-99237906D01*
X148592230Y-99550000D01*
X149407770Y-99550000D01*
X150161232Y-99237906D01*
X150737906Y-98661232D01*
X151050000Y-97907770D01*
X151050000Y-97092230D01*
X150737906Y-96338768D01*
X150161232Y-95762094D01*
X149407770Y-95450000D01*
X148592230Y-95450000D01*
X147838768Y-95762094D01*
X147262094Y-96338768D01*
X146950000Y-97092230D01*
X131050000Y-97092230D01*
X131050000Y-96592230D01*
X130737906Y-95838768D01*
X130161232Y-95262094D01*
X129407770Y-94950000D01*
X128592230Y-94950000D01*
X127838768Y-95262094D01*
X127262094Y-95838768D01*
X126950000Y-96592230D01*
X125625000Y-96592230D01*
X125625000Y-94014901D01*
X147767942Y-94014901D01*
X147938875Y-94300775D01*
X148708775Y-94569774D01*
X149523011Y-94523670D01*
X150061125Y-94300775D01*
X150232058Y-94014901D01*
X149000000Y-92782843D01*
X147767942Y-94014901D01*
X125625000Y-94014901D01*
X125625000Y-92208775D01*
X146930226Y-92208775D01*
X146976330Y-93023011D01*
X147199225Y-93561125D01*
X147485099Y-93732058D01*
X148717157Y-92500000D01*
X149282843Y-92500000D01*
X150514901Y-93732058D01*
X150800775Y-93561125D01*
X151069774Y-92791225D01*
X151023670Y-91976989D01*
X150800775Y-91438875D01*
X150514901Y-91267942D01*
X149282843Y-92500000D01*
X148717157Y-92500000D01*
X147485099Y-91267942D01*
X147199225Y-91438875D01*
X146930226Y-92208775D01*
X125625000Y-92208775D01*
X125625000Y-90985099D01*
X147767942Y-90985099D01*
X149000000Y-92217157D01*
X150232058Y-90985099D01*
X150061125Y-90699225D01*
X149291225Y-90430226D01*
X148476989Y-90476330D01*
X147938875Y-90699225D01*
X147767942Y-90985099D01*
X125625000Y-90985099D01*
X125625000Y-89014901D01*
X147767942Y-89014901D01*
X147938875Y-89300775D01*
X148708775Y-89569774D01*
X149523011Y-89523670D01*
X150061125Y-89300775D01*
X150232058Y-89014901D01*
X149000000Y-87782843D01*
X147767942Y-89014901D01*
X125625000Y-89014901D01*
X125625000Y-87208775D01*
X146930226Y-87208775D01*
X146976330Y-88023011D01*
X147199225Y-88561125D01*
X147485099Y-88732058D01*
X148717157Y-87500000D01*
X149282843Y-87500000D01*
X150514901Y-88732058D01*
X150800775Y-88561125D01*
X151069774Y-87791225D01*
X151023670Y-86976989D01*
X150800775Y-86438875D01*
X150514901Y-86267942D01*
X149282843Y-87500000D01*
X148717157Y-87500000D01*
X147485099Y-86267942D01*
X147199225Y-86438875D01*
X146930226Y-87208775D01*
X125625000Y-87208775D01*
X125625000Y-85985099D01*
X147767942Y-85985099D01*
X149000000Y-87217157D01*
X150232058Y-85985099D01*
X150061125Y-85699225D01*
X149291225Y-85430226D01*
X148476989Y-85476330D01*
X147938875Y-85699225D01*
X147767942Y-85985099D01*
X125625000Y-85985099D01*
X125625000Y-82092230D01*
X146950000Y-82092230D01*
X146950000Y-82907770D01*
X147262094Y-83661232D01*
X147838768Y-84237906D01*
X148592230Y-84550000D01*
X149407770Y-84550000D01*
X150161232Y-84237906D01*
X150737906Y-83661232D01*
X151050000Y-82907770D01*
X151050000Y-82092230D01*
X150737906Y-81338768D01*
X150161232Y-80762094D01*
X149407770Y-80450000D01*
X148592230Y-80450000D01*
X147838768Y-80762094D01*
X147262094Y-81338768D01*
X146950000Y-82092230D01*
X125625000Y-82092230D01*
X125625000Y-73625000D01*
X157375000Y-73625000D01*
X157375001Y-108375000D01*
X157375001Y-108375000D01*
G37*
X157375001Y-108375000D02*
X125625000Y-108375000D01*
X125625000Y-104592230D01*
X138200000Y-104592230D01*
X138200000Y-105407770D01*
X138512094Y-106161232D01*
X139088768Y-106737906D01*
X139842230Y-107050000D01*
X140657770Y-107050000D01*
X141411232Y-106737906D01*
X141987906Y-106161232D01*
X142300000Y-105407770D01*
X142300000Y-104592230D01*
X141987906Y-103838768D01*
X141411232Y-103262094D01*
X140657770Y-102950000D01*
X139842230Y-102950000D01*
X139088768Y-103262094D01*
X138512094Y-103838768D01*
X138200000Y-104592230D01*
X125625000Y-104592230D01*
X125625000Y-96592230D01*
X126950000Y-96592230D01*
X126950000Y-97407770D01*
X127262094Y-98161232D01*
X127838768Y-98737906D01*
X128592230Y-99050000D01*
X129407770Y-99050000D01*
X130161232Y-98737906D01*
X130737906Y-98161232D01*
X131050000Y-97407770D01*
X131050000Y-97092230D01*
X146950000Y-97092230D01*
X146950000Y-97907770D01*
X147262094Y-98661232D01*
X147838768Y-99237906D01*
X148592230Y-99550000D01*
X149407770Y-99550000D01*
X150161232Y-99237906D01*
X150737906Y-98661232D01*
X151050000Y-97907770D01*
X151050000Y-97092230D01*
X150737906Y-96338768D01*
X150161232Y-95762094D01*
X149407770Y-95450000D01*
X148592230Y-95450000D01*
X147838768Y-95762094D01*
X147262094Y-96338768D01*
X146950000Y-97092230D01*
X131050000Y-97092230D01*
X131050000Y-96592230D01*
X130737906Y-95838768D01*
X130161232Y-95262094D01*
X129407770Y-94950000D01*
X128592230Y-94950000D01*
X127838768Y-95262094D01*
X127262094Y-95838768D01*
X126950000Y-96592230D01*
X125625000Y-96592230D01*
X125625000Y-94014901D01*
X147767942Y-94014901D01*
X147938875Y-94300775D01*
X148708775Y-94569774D01*
X149523011Y-94523670D01*
X150061125Y-94300775D01*
X150232058Y-94014901D01*
X149000000Y-92782843D01*
X147767942Y-94014901D01*
X125625000Y-94014901D01*
X125625000Y-92208775D01*
X146930226Y-92208775D01*
X146976330Y-93023011D01*
X147199225Y-93561125D01*
X147485099Y-93732058D01*
X148717157Y-92500000D01*
X149282843Y-92500000D01*
X150514901Y-93732058D01*
X150800775Y-93561125D01*
X151069774Y-92791225D01*
X151023670Y-91976989D01*
X150800775Y-91438875D01*
X150514901Y-91267942D01*
X149282843Y-92500000D01*
X148717157Y-92500000D01*
X147485099Y-91267942D01*
X147199225Y-91438875D01*
X146930226Y-92208775D01*
X125625000Y-92208775D01*
X125625000Y-90985099D01*
X147767942Y-90985099D01*
X149000000Y-92217157D01*
X150232058Y-90985099D01*
X150061125Y-90699225D01*
X149291225Y-90430226D01*
X148476989Y-90476330D01*
X147938875Y-90699225D01*
X147767942Y-90985099D01*
X125625000Y-90985099D01*
X125625000Y-89014901D01*
X147767942Y-89014901D01*
X147938875Y-89300775D01*
X148708775Y-89569774D01*
X149523011Y-89523670D01*
X150061125Y-89300775D01*
X150232058Y-89014901D01*
X149000000Y-87782843D01*
X147767942Y-89014901D01*
X125625000Y-89014901D01*
X125625000Y-87208775D01*
X146930226Y-87208775D01*
X146976330Y-88023011D01*
X147199225Y-88561125D01*
X147485099Y-88732058D01*
X148717157Y-87500000D01*
X149282843Y-87500000D01*
X150514901Y-88732058D01*
X150800775Y-88561125D01*
X151069774Y-87791225D01*
X151023670Y-86976989D01*
X150800775Y-86438875D01*
X150514901Y-86267942D01*
X149282843Y-87500000D01*
X148717157Y-87500000D01*
X147485099Y-86267942D01*
X147199225Y-86438875D01*
X146930226Y-87208775D01*
X125625000Y-87208775D01*
X125625000Y-85985099D01*
X147767942Y-85985099D01*
X149000000Y-87217157D01*
X150232058Y-85985099D01*
X150061125Y-85699225D01*
X149291225Y-85430226D01*
X148476989Y-85476330D01*
X147938875Y-85699225D01*
X147767942Y-85985099D01*
X125625000Y-85985099D01*
X125625000Y-82092230D01*
X146950000Y-82092230D01*
X146950000Y-82907770D01*
X147262094Y-83661232D01*
X147838768Y-84237906D01*
X148592230Y-84550000D01*
X149407770Y-84550000D01*
X150161232Y-84237906D01*
X150737906Y-83661232D01*
X151050000Y-82907770D01*
X151050000Y-82092230D01*
X150737906Y-81338768D01*
X150161232Y-80762094D01*
X149407770Y-80450000D01*
X148592230Y-80450000D01*
X147838768Y-80762094D01*
X147262094Y-81338768D01*
X146950000Y-82092230D01*
X125625000Y-82092230D01*
X125625000Y-73625000D01*
X157375000Y-73625000D01*
X157375001Y-108375000D01*
G04 #@! TD*
M02*
