G04 #@! TF.GenerationSoftware,KiCad,Pcbnew,5.0.1*
G04 #@! TF.CreationDate,2019-02-25T23:01:50+01:00*
G04 #@! TF.ProjectId,MCP1642 Eval Board,4D435031363432204576616C20426F61,rev?*
G04 #@! TF.SameCoordinates,Original*
G04 #@! TF.FileFunction,Soldermask,Top*
G04 #@! TF.FilePolarity,Negative*
%FSLAX46Y46*%
G04 Gerber Fmt 4.6, Leading zero omitted, Abs format (unit mm)*
G04 Created by KiCad (PCBNEW 5.0.1) date Mon 25 Feb 2019 11:01:50 PM CET*
%MOMM*%
%LPD*%
G01*
G04 APERTURE LIST*
%ADD10C,0.100000*%
G04 APERTURE END LIST*
D10*
G36*
X154134239Y-101311467D02*
X154448282Y-101373934D01*
X155039926Y-101619001D01*
X155349721Y-101826000D01*
X155572395Y-101974786D01*
X156025214Y-102427605D01*
X156025216Y-102427608D01*
X156380999Y-102960074D01*
X156626066Y-103551718D01*
X156626066Y-103551719D01*
X156717482Y-104011295D01*
X156751000Y-104179804D01*
X156751000Y-104820196D01*
X156626066Y-105448282D01*
X156380999Y-106039926D01*
X156157457Y-106374479D01*
X156025214Y-106572395D01*
X155572395Y-107025214D01*
X155572392Y-107025216D01*
X155039926Y-107380999D01*
X154448282Y-107626066D01*
X154134239Y-107688533D01*
X153820197Y-107751000D01*
X153179803Y-107751000D01*
X152865761Y-107688533D01*
X152551718Y-107626066D01*
X151960074Y-107380999D01*
X151427608Y-107025216D01*
X151427605Y-107025214D01*
X150974786Y-106572395D01*
X150842543Y-106374479D01*
X150619001Y-106039926D01*
X150373934Y-105448282D01*
X150249000Y-104820196D01*
X150249000Y-104179804D01*
X150282519Y-104011295D01*
X150373934Y-103551719D01*
X150373934Y-103551718D01*
X150619001Y-102960074D01*
X150974784Y-102427608D01*
X150974786Y-102427605D01*
X151427605Y-101974786D01*
X151650279Y-101826000D01*
X151960074Y-101619001D01*
X152551718Y-101373934D01*
X152865761Y-101311467D01*
X153179803Y-101249000D01*
X153820197Y-101249000D01*
X154134239Y-101311467D01*
X154134239Y-101311467D01*
G37*
G36*
X130134239Y-101311467D02*
X130448282Y-101373934D01*
X131039926Y-101619001D01*
X131349721Y-101826000D01*
X131572395Y-101974786D01*
X132025214Y-102427605D01*
X132025216Y-102427608D01*
X132380999Y-102960074D01*
X132626066Y-103551718D01*
X132626066Y-103551719D01*
X132717482Y-104011295D01*
X132751000Y-104179804D01*
X132751000Y-104820196D01*
X132626066Y-105448282D01*
X132380999Y-106039926D01*
X132157457Y-106374479D01*
X132025214Y-106572395D01*
X131572395Y-107025214D01*
X131572392Y-107025216D01*
X131039926Y-107380999D01*
X130448282Y-107626066D01*
X130134239Y-107688533D01*
X129820197Y-107751000D01*
X129179803Y-107751000D01*
X128865761Y-107688533D01*
X128551718Y-107626066D01*
X127960074Y-107380999D01*
X127427608Y-107025216D01*
X127427605Y-107025214D01*
X126974786Y-106572395D01*
X126842543Y-106374479D01*
X126619001Y-106039926D01*
X126373934Y-105448282D01*
X126249000Y-104820196D01*
X126249000Y-104179804D01*
X126282519Y-104011295D01*
X126373934Y-103551719D01*
X126373934Y-103551718D01*
X126619001Y-102960074D01*
X126974784Y-102427608D01*
X126974786Y-102427605D01*
X127427605Y-101974786D01*
X127650279Y-101826000D01*
X127960074Y-101619001D01*
X128551718Y-101373934D01*
X128865761Y-101311467D01*
X129179803Y-101249000D01*
X129820197Y-101249000D01*
X130134239Y-101311467D01*
X130134239Y-101311467D01*
G37*
G36*
X140602527Y-103488736D02*
X140702410Y-103508604D01*
X140984674Y-103625521D01*
X141238705Y-103795259D01*
X141454741Y-104011295D01*
X141624479Y-104265326D01*
X141741396Y-104547590D01*
X141801000Y-104847240D01*
X141801000Y-105152760D01*
X141741396Y-105452410D01*
X141624479Y-105734674D01*
X141454741Y-105988705D01*
X141238705Y-106204741D01*
X140984674Y-106374479D01*
X140702410Y-106491396D01*
X140602527Y-106511264D01*
X140402762Y-106551000D01*
X140097238Y-106551000D01*
X139897473Y-106511264D01*
X139797590Y-106491396D01*
X139515326Y-106374479D01*
X139261295Y-106204741D01*
X139045259Y-105988705D01*
X138875521Y-105734674D01*
X138758604Y-105452410D01*
X138699000Y-105152760D01*
X138699000Y-104847240D01*
X138758604Y-104547590D01*
X138875521Y-104265326D01*
X139045259Y-104011295D01*
X139261295Y-103795259D01*
X139515326Y-103625521D01*
X139797590Y-103508604D01*
X139897473Y-103488736D01*
X140097238Y-103449000D01*
X140402762Y-103449000D01*
X140602527Y-103488736D01*
X140602527Y-103488736D01*
G37*
G36*
X142129591Y-100778085D02*
X142163569Y-100788393D01*
X142194887Y-100805133D01*
X142222339Y-100827661D01*
X142244867Y-100855113D01*
X142261607Y-100886431D01*
X142271915Y-100920409D01*
X142276000Y-100961890D01*
X142276000Y-101638110D01*
X142271915Y-101679591D01*
X142261607Y-101713569D01*
X142244867Y-101744887D01*
X142222339Y-101772339D01*
X142194887Y-101794867D01*
X142163569Y-101811607D01*
X142129591Y-101821915D01*
X142088110Y-101826000D01*
X141486890Y-101826000D01*
X141445409Y-101821915D01*
X141411431Y-101811607D01*
X141380113Y-101794867D01*
X141352661Y-101772339D01*
X141330133Y-101744887D01*
X141313393Y-101713569D01*
X141303085Y-101679591D01*
X141299000Y-101638110D01*
X141299000Y-100961890D01*
X141303085Y-100920409D01*
X141313393Y-100886431D01*
X141330133Y-100855113D01*
X141352661Y-100827661D01*
X141380113Y-100805133D01*
X141411431Y-100788393D01*
X141445409Y-100778085D01*
X141486890Y-100774000D01*
X142088110Y-100774000D01*
X142129591Y-100778085D01*
X142129591Y-100778085D01*
G37*
G36*
X140554591Y-100778085D02*
X140588569Y-100788393D01*
X140619887Y-100805133D01*
X140647339Y-100827661D01*
X140669867Y-100855113D01*
X140686607Y-100886431D01*
X140696915Y-100920409D01*
X140701000Y-100961890D01*
X140701000Y-101638110D01*
X140696915Y-101679591D01*
X140686607Y-101713569D01*
X140669867Y-101744887D01*
X140647339Y-101772339D01*
X140619887Y-101794867D01*
X140588569Y-101811607D01*
X140554591Y-101821915D01*
X140513110Y-101826000D01*
X139911890Y-101826000D01*
X139870409Y-101821915D01*
X139836431Y-101811607D01*
X139805113Y-101794867D01*
X139777661Y-101772339D01*
X139755133Y-101744887D01*
X139738393Y-101713569D01*
X139728085Y-101679591D01*
X139724000Y-101638110D01*
X139724000Y-100961890D01*
X139728085Y-100920409D01*
X139738393Y-100886431D01*
X139755133Y-100855113D01*
X139777661Y-100827661D01*
X139805113Y-100805133D01*
X139836431Y-100788393D01*
X139870409Y-100778085D01*
X139911890Y-100774000D01*
X140513110Y-100774000D01*
X140554591Y-100778085D01*
X140554591Y-100778085D01*
G37*
G36*
X142129591Y-99278085D02*
X142163569Y-99288393D01*
X142194887Y-99305133D01*
X142222339Y-99327661D01*
X142244867Y-99355113D01*
X142261607Y-99386431D01*
X142271915Y-99420409D01*
X142276000Y-99461890D01*
X142276000Y-100138110D01*
X142271915Y-100179591D01*
X142261607Y-100213569D01*
X142244867Y-100244887D01*
X142222339Y-100272339D01*
X142194887Y-100294867D01*
X142163569Y-100311607D01*
X142129591Y-100321915D01*
X142088110Y-100326000D01*
X141486890Y-100326000D01*
X141445409Y-100321915D01*
X141411431Y-100311607D01*
X141380113Y-100294867D01*
X141352661Y-100272339D01*
X141330133Y-100244887D01*
X141313393Y-100213569D01*
X141303085Y-100179591D01*
X141299000Y-100138110D01*
X141299000Y-99461890D01*
X141303085Y-99420409D01*
X141313393Y-99386431D01*
X141330133Y-99355113D01*
X141352661Y-99327661D01*
X141380113Y-99305133D01*
X141411431Y-99288393D01*
X141445409Y-99278085D01*
X141486890Y-99274000D01*
X142088110Y-99274000D01*
X142129591Y-99278085D01*
X142129591Y-99278085D01*
G37*
G36*
X140554591Y-99278085D02*
X140588569Y-99288393D01*
X140619887Y-99305133D01*
X140647339Y-99327661D01*
X140669867Y-99355113D01*
X140686607Y-99386431D01*
X140696915Y-99420409D01*
X140701000Y-99461890D01*
X140701000Y-100138110D01*
X140696915Y-100179591D01*
X140686607Y-100213569D01*
X140669867Y-100244887D01*
X140647339Y-100272339D01*
X140619887Y-100294867D01*
X140588569Y-100311607D01*
X140554591Y-100321915D01*
X140513110Y-100326000D01*
X139911890Y-100326000D01*
X139870409Y-100321915D01*
X139836431Y-100311607D01*
X139805113Y-100294867D01*
X139777661Y-100272339D01*
X139755133Y-100244887D01*
X139738393Y-100213569D01*
X139728085Y-100179591D01*
X139724000Y-100138110D01*
X139724000Y-99461890D01*
X139728085Y-99420409D01*
X139738393Y-99386431D01*
X139755133Y-99355113D01*
X139777661Y-99327661D01*
X139805113Y-99305133D01*
X139836431Y-99288393D01*
X139870409Y-99278085D01*
X139911890Y-99274000D01*
X140513110Y-99274000D01*
X140554591Y-99278085D01*
X140554591Y-99278085D01*
G37*
G36*
X149352527Y-95988736D02*
X149452410Y-96008604D01*
X149734674Y-96125521D01*
X149988705Y-96295259D01*
X150204741Y-96511295D01*
X150374479Y-96765326D01*
X150491396Y-97047590D01*
X150507707Y-97129591D01*
X150551000Y-97347238D01*
X150551000Y-97652762D01*
X150524021Y-97788393D01*
X150491396Y-97952410D01*
X150374479Y-98234674D01*
X150204741Y-98488705D01*
X149988705Y-98704741D01*
X149734674Y-98874479D01*
X149452410Y-98991396D01*
X149352527Y-99011264D01*
X149152762Y-99051000D01*
X148847238Y-99051000D01*
X148647473Y-99011264D01*
X148547590Y-98991396D01*
X148265326Y-98874479D01*
X148011295Y-98704741D01*
X147795259Y-98488705D01*
X147625521Y-98234674D01*
X147508604Y-97952410D01*
X147475979Y-97788393D01*
X147449000Y-97652762D01*
X147449000Y-97347238D01*
X147492293Y-97129591D01*
X147508604Y-97047590D01*
X147625521Y-96765326D01*
X147795259Y-96511295D01*
X148011295Y-96295259D01*
X148265326Y-96125521D01*
X148547590Y-96008604D01*
X148647473Y-95988736D01*
X148847238Y-95949000D01*
X149152762Y-95949000D01*
X149352527Y-95988736D01*
X149352527Y-95988736D01*
G37*
G36*
X140554591Y-97778085D02*
X140588569Y-97788393D01*
X140619887Y-97805133D01*
X140647339Y-97827661D01*
X140669867Y-97855113D01*
X140686607Y-97886431D01*
X140696915Y-97920409D01*
X140701000Y-97961890D01*
X140701000Y-98638110D01*
X140696915Y-98679591D01*
X140686607Y-98713569D01*
X140669867Y-98744887D01*
X140647339Y-98772339D01*
X140619887Y-98794867D01*
X140588569Y-98811607D01*
X140554591Y-98821915D01*
X140513110Y-98826000D01*
X139911890Y-98826000D01*
X139870409Y-98821915D01*
X139836431Y-98811607D01*
X139805113Y-98794867D01*
X139777661Y-98772339D01*
X139755133Y-98744887D01*
X139738393Y-98713569D01*
X139728085Y-98679591D01*
X139724000Y-98638110D01*
X139724000Y-97961890D01*
X139728085Y-97920409D01*
X139738393Y-97886431D01*
X139755133Y-97855113D01*
X139777661Y-97827661D01*
X139805113Y-97805133D01*
X139836431Y-97788393D01*
X139870409Y-97778085D01*
X139911890Y-97774000D01*
X140513110Y-97774000D01*
X140554591Y-97778085D01*
X140554591Y-97778085D01*
G37*
G36*
X142129591Y-97778085D02*
X142163569Y-97788393D01*
X142194887Y-97805133D01*
X142222339Y-97827661D01*
X142244867Y-97855113D01*
X142261607Y-97886431D01*
X142271915Y-97920409D01*
X142276000Y-97961890D01*
X142276000Y-98638110D01*
X142271915Y-98679591D01*
X142261607Y-98713569D01*
X142244867Y-98744887D01*
X142222339Y-98772339D01*
X142194887Y-98794867D01*
X142163569Y-98811607D01*
X142129591Y-98821915D01*
X142088110Y-98826000D01*
X141486890Y-98826000D01*
X141445409Y-98821915D01*
X141411431Y-98811607D01*
X141380113Y-98794867D01*
X141352661Y-98772339D01*
X141330133Y-98744887D01*
X141313393Y-98713569D01*
X141303085Y-98679591D01*
X141299000Y-98638110D01*
X141299000Y-97961890D01*
X141303085Y-97920409D01*
X141313393Y-97886431D01*
X141330133Y-97855113D01*
X141352661Y-97827661D01*
X141380113Y-97805133D01*
X141411431Y-97788393D01*
X141445409Y-97778085D01*
X141486890Y-97774000D01*
X142088110Y-97774000D01*
X142129591Y-97778085D01*
X142129591Y-97778085D01*
G37*
G36*
X139129591Y-97778085D02*
X139163569Y-97788393D01*
X139194887Y-97805133D01*
X139222339Y-97827661D01*
X139244867Y-97855113D01*
X139261607Y-97886431D01*
X139271915Y-97920409D01*
X139276000Y-97961890D01*
X139276000Y-98638110D01*
X139271915Y-98679591D01*
X139261607Y-98713569D01*
X139244867Y-98744887D01*
X139222339Y-98772339D01*
X139194887Y-98794867D01*
X139163569Y-98811607D01*
X139129591Y-98821915D01*
X139088110Y-98826000D01*
X138486890Y-98826000D01*
X138445409Y-98821915D01*
X138411431Y-98811607D01*
X138380113Y-98794867D01*
X138352661Y-98772339D01*
X138330133Y-98744887D01*
X138313393Y-98713569D01*
X138303085Y-98679591D01*
X138299000Y-98638110D01*
X138299000Y-97961890D01*
X138303085Y-97920409D01*
X138313393Y-97886431D01*
X138330133Y-97855113D01*
X138352661Y-97827661D01*
X138380113Y-97805133D01*
X138411431Y-97788393D01*
X138445409Y-97778085D01*
X138486890Y-97774000D01*
X139088110Y-97774000D01*
X139129591Y-97778085D01*
X139129591Y-97778085D01*
G37*
G36*
X137554591Y-97778085D02*
X137588569Y-97788393D01*
X137619887Y-97805133D01*
X137647339Y-97827661D01*
X137669867Y-97855113D01*
X137686607Y-97886431D01*
X137696915Y-97920409D01*
X137701000Y-97961890D01*
X137701000Y-98638110D01*
X137696915Y-98679591D01*
X137686607Y-98713569D01*
X137669867Y-98744887D01*
X137647339Y-98772339D01*
X137619887Y-98794867D01*
X137588569Y-98811607D01*
X137554591Y-98821915D01*
X137513110Y-98826000D01*
X136911890Y-98826000D01*
X136870409Y-98821915D01*
X136836431Y-98811607D01*
X136805113Y-98794867D01*
X136777661Y-98772339D01*
X136755133Y-98744887D01*
X136738393Y-98713569D01*
X136728085Y-98679591D01*
X136724000Y-98638110D01*
X136724000Y-97961890D01*
X136728085Y-97920409D01*
X136738393Y-97886431D01*
X136755133Y-97855113D01*
X136777661Y-97827661D01*
X136805113Y-97805133D01*
X136836431Y-97788393D01*
X136870409Y-97778085D01*
X136911890Y-97774000D01*
X137513110Y-97774000D01*
X137554591Y-97778085D01*
X137554591Y-97778085D01*
G37*
G36*
X129352527Y-95488736D02*
X129452410Y-95508604D01*
X129734674Y-95625521D01*
X129988705Y-95795259D01*
X130204741Y-96011295D01*
X130374479Y-96265326D01*
X130476361Y-96511293D01*
X130491396Y-96547591D01*
X130551000Y-96847238D01*
X130551000Y-97152762D01*
X130540716Y-97204461D01*
X130491396Y-97452410D01*
X130374479Y-97734674D01*
X130204741Y-97988705D01*
X129988705Y-98204741D01*
X129734674Y-98374479D01*
X129452410Y-98491396D01*
X129352527Y-98511264D01*
X129152762Y-98551000D01*
X128847238Y-98551000D01*
X128647473Y-98511264D01*
X128547590Y-98491396D01*
X128265326Y-98374479D01*
X128011295Y-98204741D01*
X127795259Y-97988705D01*
X127625521Y-97734674D01*
X127508604Y-97452410D01*
X127459284Y-97204461D01*
X127449000Y-97152762D01*
X127449000Y-96847238D01*
X127508604Y-96547591D01*
X127523639Y-96511293D01*
X127625521Y-96265326D01*
X127795259Y-96011295D01*
X128011295Y-95795259D01*
X128265326Y-95625521D01*
X128547590Y-95508604D01*
X128647473Y-95488736D01*
X128847238Y-95449000D01*
X129152762Y-95449000D01*
X129352527Y-95488736D01*
X129352527Y-95488736D01*
G37*
G36*
X133629591Y-96303085D02*
X133663569Y-96313393D01*
X133694887Y-96330133D01*
X133722339Y-96352661D01*
X133744867Y-96380113D01*
X133761607Y-96411431D01*
X133771915Y-96445409D01*
X133776000Y-96486890D01*
X133776000Y-97088110D01*
X133771915Y-97129591D01*
X133761607Y-97163569D01*
X133744867Y-97194887D01*
X133722339Y-97222339D01*
X133694887Y-97244867D01*
X133663569Y-97261607D01*
X133629591Y-97271915D01*
X133588110Y-97276000D01*
X132911890Y-97276000D01*
X132870409Y-97271915D01*
X132836431Y-97261607D01*
X132805113Y-97244867D01*
X132777661Y-97222339D01*
X132755133Y-97194887D01*
X132738393Y-97163569D01*
X132728085Y-97129591D01*
X132724000Y-97088110D01*
X132724000Y-96486890D01*
X132728085Y-96445409D01*
X132738393Y-96411431D01*
X132755133Y-96380113D01*
X132777661Y-96352661D01*
X132805113Y-96330133D01*
X132836431Y-96313393D01*
X132870409Y-96303085D01*
X132911890Y-96299000D01*
X133588110Y-96299000D01*
X133629591Y-96303085D01*
X133629591Y-96303085D01*
G37*
G36*
X141501000Y-96726000D02*
X138999000Y-96726000D01*
X138999000Y-95174000D01*
X141501000Y-95174000D01*
X141501000Y-96726000D01*
X141501000Y-96726000D01*
G37*
G36*
X145834466Y-95403565D02*
X145873137Y-95415296D01*
X145908779Y-95434348D01*
X145940017Y-95459983D01*
X145965652Y-95491221D01*
X145984704Y-95526863D01*
X145996435Y-95565534D01*
X146001000Y-95611888D01*
X146001000Y-96263112D01*
X145996435Y-96309466D01*
X145984704Y-96348137D01*
X145965652Y-96383779D01*
X145940017Y-96415017D01*
X145908779Y-96440652D01*
X145873137Y-96459704D01*
X145834466Y-96471435D01*
X145788112Y-96476000D01*
X144711888Y-96476000D01*
X144665534Y-96471435D01*
X144626863Y-96459704D01*
X144591221Y-96440652D01*
X144559983Y-96415017D01*
X144534348Y-96383779D01*
X144515296Y-96348137D01*
X144503565Y-96309466D01*
X144499000Y-96263112D01*
X144499000Y-95611888D01*
X144503565Y-95565534D01*
X144515296Y-95526863D01*
X144534348Y-95491221D01*
X144559983Y-95459983D01*
X144591221Y-95434348D01*
X144626863Y-95415296D01*
X144665534Y-95403565D01*
X144711888Y-95399000D01*
X145788112Y-95399000D01*
X145834466Y-95403565D01*
X145834466Y-95403565D01*
G37*
G36*
X143834466Y-95403565D02*
X143873137Y-95415296D01*
X143908779Y-95434348D01*
X143940017Y-95459983D01*
X143965652Y-95491221D01*
X143984704Y-95526863D01*
X143996435Y-95565534D01*
X144001000Y-95611888D01*
X144001000Y-96263112D01*
X143996435Y-96309466D01*
X143984704Y-96348137D01*
X143965652Y-96383779D01*
X143940017Y-96415017D01*
X143908779Y-96440652D01*
X143873137Y-96459704D01*
X143834466Y-96471435D01*
X143788112Y-96476000D01*
X142711888Y-96476000D01*
X142665534Y-96471435D01*
X142626863Y-96459704D01*
X142591221Y-96440652D01*
X142559983Y-96415017D01*
X142534348Y-96383779D01*
X142515296Y-96348137D01*
X142503565Y-96309466D01*
X142499000Y-96263112D01*
X142499000Y-95611888D01*
X142503565Y-95565534D01*
X142515296Y-95526863D01*
X142534348Y-95491221D01*
X142559983Y-95459983D01*
X142591221Y-95434348D01*
X142626863Y-95415296D01*
X142665534Y-95403565D01*
X142711888Y-95399000D01*
X143788112Y-95399000D01*
X143834466Y-95403565D01*
X143834466Y-95403565D01*
G37*
G36*
X133629591Y-94728085D02*
X133663569Y-94738393D01*
X133694887Y-94755133D01*
X133722339Y-94777661D01*
X133744867Y-94805113D01*
X133761607Y-94836431D01*
X133771915Y-94870409D01*
X133776000Y-94911890D01*
X133776000Y-95513110D01*
X133771915Y-95554591D01*
X133761607Y-95588569D01*
X133744867Y-95619887D01*
X133722339Y-95647339D01*
X133694887Y-95669867D01*
X133663569Y-95686607D01*
X133629591Y-95696915D01*
X133588110Y-95701000D01*
X132911890Y-95701000D01*
X132870409Y-95696915D01*
X132836431Y-95686607D01*
X132805113Y-95669867D01*
X132777661Y-95647339D01*
X132755133Y-95619887D01*
X132738393Y-95588569D01*
X132728085Y-95554591D01*
X132724000Y-95513110D01*
X132724000Y-94911890D01*
X132728085Y-94870409D01*
X132738393Y-94836431D01*
X132755133Y-94805113D01*
X132777661Y-94777661D01*
X132805113Y-94755133D01*
X132836431Y-94738393D01*
X132870409Y-94728085D01*
X132911890Y-94724000D01*
X133588110Y-94724000D01*
X133629591Y-94728085D01*
X133629591Y-94728085D01*
G37*
G36*
X145834466Y-93528565D02*
X145873137Y-93540296D01*
X145908779Y-93559348D01*
X145940017Y-93584983D01*
X145965652Y-93616221D01*
X145984704Y-93651863D01*
X145996435Y-93690534D01*
X146001000Y-93736888D01*
X146001000Y-94388112D01*
X145996435Y-94434466D01*
X145984704Y-94473137D01*
X145965652Y-94508779D01*
X145940017Y-94540017D01*
X145908779Y-94565652D01*
X145873137Y-94584704D01*
X145834466Y-94596435D01*
X145788112Y-94601000D01*
X144711888Y-94601000D01*
X144665534Y-94596435D01*
X144626863Y-94584704D01*
X144591221Y-94565652D01*
X144559983Y-94540017D01*
X144534348Y-94508779D01*
X144515296Y-94473137D01*
X144503565Y-94434466D01*
X144499000Y-94388112D01*
X144499000Y-93736888D01*
X144503565Y-93690534D01*
X144515296Y-93651863D01*
X144534348Y-93616221D01*
X144559983Y-93584983D01*
X144591221Y-93559348D01*
X144626863Y-93540296D01*
X144665534Y-93528565D01*
X144711888Y-93524000D01*
X145788112Y-93524000D01*
X145834466Y-93528565D01*
X145834466Y-93528565D01*
G37*
G36*
X143834466Y-93528565D02*
X143873137Y-93540296D01*
X143908779Y-93559348D01*
X143940017Y-93584983D01*
X143965652Y-93616221D01*
X143984704Y-93651863D01*
X143996435Y-93690534D01*
X144001000Y-93736888D01*
X144001000Y-94388112D01*
X143996435Y-94434466D01*
X143984704Y-94473137D01*
X143965652Y-94508779D01*
X143940017Y-94540017D01*
X143908779Y-94565652D01*
X143873137Y-94584704D01*
X143834466Y-94596435D01*
X143788112Y-94601000D01*
X142711888Y-94601000D01*
X142665534Y-94596435D01*
X142626863Y-94584704D01*
X142591221Y-94565652D01*
X142559983Y-94540017D01*
X142534348Y-94508779D01*
X142515296Y-94473137D01*
X142503565Y-94434466D01*
X142499000Y-94388112D01*
X142499000Y-93736888D01*
X142503565Y-93690534D01*
X142515296Y-93651863D01*
X142534348Y-93616221D01*
X142559983Y-93584983D01*
X142591221Y-93559348D01*
X142626863Y-93540296D01*
X142665534Y-93528565D01*
X142711888Y-93524000D01*
X143788112Y-93524000D01*
X143834466Y-93528565D01*
X143834466Y-93528565D01*
G37*
G36*
X149352527Y-90988736D02*
X149452410Y-91008604D01*
X149734674Y-91125521D01*
X149988705Y-91295259D01*
X150204741Y-91511295D01*
X150374479Y-91765326D01*
X150491396Y-92047590D01*
X150551000Y-92347240D01*
X150551000Y-92652760D01*
X150491396Y-92952410D01*
X150374479Y-93234674D01*
X150204741Y-93488705D01*
X149988705Y-93704741D01*
X149734674Y-93874479D01*
X149452410Y-93991396D01*
X149352527Y-94011264D01*
X149152762Y-94051000D01*
X148847238Y-94051000D01*
X148647473Y-94011264D01*
X148547590Y-93991396D01*
X148265326Y-93874479D01*
X148011295Y-93704741D01*
X147795259Y-93488705D01*
X147625521Y-93234674D01*
X147508604Y-92952410D01*
X147449000Y-92652760D01*
X147449000Y-92347240D01*
X147508604Y-92047590D01*
X147625521Y-91765326D01*
X147795259Y-91511295D01*
X148011295Y-91295259D01*
X148265326Y-91125521D01*
X148547590Y-91008604D01*
X148647473Y-90988736D01*
X148847238Y-90949000D01*
X149152762Y-90949000D01*
X149352527Y-90988736D01*
X149352527Y-90988736D01*
G37*
G36*
X135834466Y-92903565D02*
X135873137Y-92915296D01*
X135908779Y-92934348D01*
X135940017Y-92959983D01*
X135965652Y-92991221D01*
X135984704Y-93026863D01*
X135996435Y-93065534D01*
X136001000Y-93111888D01*
X136001000Y-93763112D01*
X135996435Y-93809466D01*
X135984704Y-93848137D01*
X135965652Y-93883779D01*
X135940017Y-93915017D01*
X135908779Y-93940652D01*
X135873137Y-93959704D01*
X135834466Y-93971435D01*
X135788112Y-93976000D01*
X134711888Y-93976000D01*
X134665534Y-93971435D01*
X134626863Y-93959704D01*
X134591221Y-93940652D01*
X134559983Y-93915017D01*
X134534348Y-93883779D01*
X134515296Y-93848137D01*
X134503565Y-93809466D01*
X134499000Y-93763112D01*
X134499000Y-93111888D01*
X134503565Y-93065534D01*
X134515296Y-93026863D01*
X134534348Y-92991221D01*
X134559983Y-92959983D01*
X134591221Y-92934348D01*
X134626863Y-92915296D01*
X134665534Y-92903565D01*
X134711888Y-92899000D01*
X135788112Y-92899000D01*
X135834466Y-92903565D01*
X135834466Y-92903565D01*
G37*
G36*
X137834466Y-92903565D02*
X137873137Y-92915296D01*
X137908779Y-92934348D01*
X137940017Y-92959983D01*
X137965652Y-92991221D01*
X137984704Y-93026863D01*
X137996435Y-93065534D01*
X138001000Y-93111888D01*
X138001000Y-93763112D01*
X137996435Y-93809466D01*
X137984704Y-93848137D01*
X137965652Y-93883779D01*
X137940017Y-93915017D01*
X137908779Y-93940652D01*
X137873137Y-93959704D01*
X137834466Y-93971435D01*
X137788112Y-93976000D01*
X136711888Y-93976000D01*
X136665534Y-93971435D01*
X136626863Y-93959704D01*
X136591221Y-93940652D01*
X136559983Y-93915017D01*
X136534348Y-93883779D01*
X136515296Y-93848137D01*
X136503565Y-93809466D01*
X136499000Y-93763112D01*
X136499000Y-93111888D01*
X136503565Y-93065534D01*
X136515296Y-93026863D01*
X136534348Y-92991221D01*
X136559983Y-92959983D01*
X136591221Y-92934348D01*
X136626863Y-92915296D01*
X136665534Y-92903565D01*
X136711888Y-92899000D01*
X137788112Y-92899000D01*
X137834466Y-92903565D01*
X137834466Y-92903565D01*
G37*
G36*
X141501000Y-92326000D02*
X138999000Y-92326000D01*
X138999000Y-90774000D01*
X141501000Y-90774000D01*
X141501000Y-92326000D01*
X141501000Y-92326000D01*
G37*
G36*
X137834466Y-91028565D02*
X137873137Y-91040296D01*
X137908779Y-91059348D01*
X137940017Y-91084983D01*
X137965652Y-91116221D01*
X137984704Y-91151863D01*
X137996435Y-91190534D01*
X138001000Y-91236888D01*
X138001000Y-91888112D01*
X137996435Y-91934466D01*
X137984704Y-91973137D01*
X137965652Y-92008779D01*
X137940017Y-92040017D01*
X137908779Y-92065652D01*
X137873137Y-92084704D01*
X137834466Y-92096435D01*
X137788112Y-92101000D01*
X136711888Y-92101000D01*
X136665534Y-92096435D01*
X136626863Y-92084704D01*
X136591221Y-92065652D01*
X136559983Y-92040017D01*
X136534348Y-92008779D01*
X136515296Y-91973137D01*
X136503565Y-91934466D01*
X136499000Y-91888112D01*
X136499000Y-91236888D01*
X136503565Y-91190534D01*
X136515296Y-91151863D01*
X136534348Y-91116221D01*
X136559983Y-91084983D01*
X136591221Y-91059348D01*
X136626863Y-91040296D01*
X136665534Y-91028565D01*
X136711888Y-91024000D01*
X137788112Y-91024000D01*
X137834466Y-91028565D01*
X137834466Y-91028565D01*
G37*
G36*
X135834466Y-91028565D02*
X135873137Y-91040296D01*
X135908779Y-91059348D01*
X135940017Y-91084983D01*
X135965652Y-91116221D01*
X135984704Y-91151863D01*
X135996435Y-91190534D01*
X136001000Y-91236888D01*
X136001000Y-91888112D01*
X135996435Y-91934466D01*
X135984704Y-91973137D01*
X135965652Y-92008779D01*
X135940017Y-92040017D01*
X135908779Y-92065652D01*
X135873137Y-92084704D01*
X135834466Y-92096435D01*
X135788112Y-92101000D01*
X134711888Y-92101000D01*
X134665534Y-92096435D01*
X134626863Y-92084704D01*
X134591221Y-92065652D01*
X134559983Y-92040017D01*
X134534348Y-92008779D01*
X134515296Y-91973137D01*
X134503565Y-91934466D01*
X134499000Y-91888112D01*
X134499000Y-91236888D01*
X134503565Y-91190534D01*
X134515296Y-91151863D01*
X134534348Y-91116221D01*
X134559983Y-91084983D01*
X134591221Y-91059348D01*
X134626863Y-91040296D01*
X134665534Y-91028565D01*
X134711888Y-91024000D01*
X135788112Y-91024000D01*
X135834466Y-91028565D01*
X135834466Y-91028565D01*
G37*
G36*
X141751000Y-89851000D02*
X140649000Y-89851000D01*
X140649000Y-86549000D01*
X141751000Y-86549000D01*
X141751000Y-89851000D01*
X141751000Y-89851000D01*
G37*
G36*
X139551000Y-89851000D02*
X138449000Y-89851000D01*
X138449000Y-86549000D01*
X139551000Y-86549000D01*
X139551000Y-89851000D01*
X139551000Y-89851000D01*
G37*
G36*
X149352527Y-85988736D02*
X149452410Y-86008604D01*
X149734674Y-86125521D01*
X149988705Y-86295259D01*
X150204741Y-86511295D01*
X150374479Y-86765326D01*
X150491396Y-87047590D01*
X150551000Y-87347240D01*
X150551000Y-87652760D01*
X150491396Y-87952410D01*
X150374479Y-88234674D01*
X150204741Y-88488705D01*
X149988705Y-88704741D01*
X149734674Y-88874479D01*
X149452410Y-88991396D01*
X149352527Y-89011264D01*
X149152762Y-89051000D01*
X148847238Y-89051000D01*
X148647473Y-89011264D01*
X148547590Y-88991396D01*
X148265326Y-88874479D01*
X148011295Y-88704741D01*
X147795259Y-88488705D01*
X147625521Y-88234674D01*
X147508604Y-87952410D01*
X147449000Y-87652760D01*
X147449000Y-87347240D01*
X147508604Y-87047590D01*
X147625521Y-86765326D01*
X147795259Y-86511295D01*
X148011295Y-86295259D01*
X148265326Y-86125521D01*
X148547590Y-86008604D01*
X148647473Y-85988736D01*
X148847238Y-85949000D01*
X149152762Y-85949000D01*
X149352527Y-85988736D01*
X149352527Y-85988736D01*
G37*
G36*
X149352527Y-80988736D02*
X149452410Y-81008604D01*
X149734674Y-81125521D01*
X149988705Y-81295259D01*
X150204741Y-81511295D01*
X150374479Y-81765326D01*
X150491396Y-82047590D01*
X150551000Y-82347240D01*
X150551000Y-82652760D01*
X150491396Y-82952410D01*
X150374479Y-83234674D01*
X150204741Y-83488705D01*
X149988705Y-83704741D01*
X149734674Y-83874479D01*
X149452410Y-83991396D01*
X149352527Y-84011264D01*
X149152762Y-84051000D01*
X148847238Y-84051000D01*
X148647473Y-84011264D01*
X148547590Y-83991396D01*
X148265326Y-83874479D01*
X148011295Y-83704741D01*
X147795259Y-83488705D01*
X147625521Y-83234674D01*
X147508604Y-82952410D01*
X147449000Y-82652760D01*
X147449000Y-82347240D01*
X147508604Y-82047590D01*
X147625521Y-81765326D01*
X147795259Y-81511295D01*
X148011295Y-81295259D01*
X148265326Y-81125521D01*
X148547590Y-81008604D01*
X148647473Y-80988736D01*
X148847238Y-80949000D01*
X149152762Y-80949000D01*
X149352527Y-80988736D01*
X149352527Y-80988736D01*
G37*
G36*
X154134239Y-74311467D02*
X154448282Y-74373934D01*
X155039926Y-74619001D01*
X155568802Y-74972385D01*
X155572395Y-74974786D01*
X156025214Y-75427605D01*
X156025216Y-75427608D01*
X156380999Y-75960074D01*
X156626066Y-76551718D01*
X156751000Y-77179804D01*
X156751000Y-77820196D01*
X156626066Y-78448282D01*
X156380999Y-79039926D01*
X156027615Y-79568802D01*
X156025214Y-79572395D01*
X155572395Y-80025214D01*
X155572392Y-80025216D01*
X155039926Y-80380999D01*
X154448282Y-80626066D01*
X154134239Y-80688533D01*
X153820197Y-80751000D01*
X153179803Y-80751000D01*
X152865761Y-80688533D01*
X152551718Y-80626066D01*
X151960074Y-80380999D01*
X151427608Y-80025216D01*
X151427605Y-80025214D01*
X150974786Y-79572395D01*
X150972385Y-79568802D01*
X150619001Y-79039926D01*
X150373934Y-78448282D01*
X150249000Y-77820196D01*
X150249000Y-77179804D01*
X150373934Y-76551718D01*
X150619001Y-75960074D01*
X150974784Y-75427608D01*
X150974786Y-75427605D01*
X151427605Y-74974786D01*
X151431198Y-74972385D01*
X151960074Y-74619001D01*
X152551718Y-74373934D01*
X152865761Y-74311467D01*
X153179803Y-74249000D01*
X153820197Y-74249000D01*
X154134239Y-74311467D01*
X154134239Y-74311467D01*
G37*
G36*
X130134239Y-74311467D02*
X130448282Y-74373934D01*
X131039926Y-74619001D01*
X131568802Y-74972385D01*
X131572395Y-74974786D01*
X132025214Y-75427605D01*
X132025216Y-75427608D01*
X132380999Y-75960074D01*
X132626066Y-76551718D01*
X132751000Y-77179804D01*
X132751000Y-77820196D01*
X132626066Y-78448282D01*
X132380999Y-79039926D01*
X132027615Y-79568802D01*
X132025214Y-79572395D01*
X131572395Y-80025214D01*
X131572392Y-80025216D01*
X131039926Y-80380999D01*
X130448282Y-80626066D01*
X130134239Y-80688533D01*
X129820197Y-80751000D01*
X129179803Y-80751000D01*
X128865761Y-80688533D01*
X128551718Y-80626066D01*
X127960074Y-80380999D01*
X127427608Y-80025216D01*
X127427605Y-80025214D01*
X126974786Y-79572395D01*
X126972385Y-79568802D01*
X126619001Y-79039926D01*
X126373934Y-78448282D01*
X126249000Y-77820196D01*
X126249000Y-77179804D01*
X126373934Y-76551718D01*
X126619001Y-75960074D01*
X126974784Y-75427608D01*
X126974786Y-75427605D01*
X127427605Y-74974786D01*
X127431198Y-74972385D01*
X127960074Y-74619001D01*
X128551718Y-74373934D01*
X128865761Y-74311467D01*
X129179803Y-74249000D01*
X129820197Y-74249000D01*
X130134239Y-74311467D01*
X130134239Y-74311467D01*
G37*
M02*
